<svg width="560" height="340" viewBox="0 0 560 340" fill="none" xmlns="http://www.w3.org/2000/svg">
<rect width="560" height="340" fill="white"/>
<rect x="424.5" y="225.5" width="79" height="79" stroke="#191A1C"/>
<circle cx="430.25" cy="231.25" r="3.25" stroke="#191A1C"/>
<circle cx="430.25" cy="238.75" r="3.25" stroke="#191A1C"/>
<circle cx="430.25" cy="246.25" r="3.25" stroke="#191A1C"/>
<circle cx="430.25" cy="253.75" r="3.25" stroke="#191A1C"/>
<circle cx="430.25" cy="261.25" r="3.25" stroke="#191A1C"/>
<circle cx="430.25" cy="268.75" r="3.25" stroke="#191A1C"/>
<circle cx="430.25" cy="276.25" r="3.25" stroke="#191A1C"/>
<circle cx="437.75" cy="231.25" r="3.25" stroke="#191A1C"/>
<circle cx="437.75" cy="238.75" r="3.25" stroke="#191A1C"/>
<circle cx="437.75" cy="246.25" r="3.25" stroke="#191A1C"/>
<circle cx="437.75" cy="253.75" r="3.25" stroke="#191A1C"/>
<circle cx="437.75" cy="261.25" r="3.25" stroke="#191A1C"/>
<circle cx="437.75" cy="268.75" r="3.25" stroke="#191A1C"/>
<circle cx="437.75" cy="276.25" r="3.25" stroke="#191A1C"/>
<circle cx="445.25" cy="231.25" r="3.25" stroke="#191A1C"/>
<circle cx="445.25" cy="238.75" r="3.25" stroke="#191A1C"/>
<circle cx="445.25" cy="246.25" r="3.25" stroke="#191A1C"/>
<circle cx="445.25" cy="253.75" r="3.25" stroke="#191A1C"/>
<circle cx="445.25" cy="261.25" r="3.25" stroke="#191A1C"/>
<circle cx="445.25" cy="268.75" r="3.25" stroke="#191A1C"/>
<circle cx="445.25" cy="276.25" r="3.25" stroke="#191A1C"/>
<circle cx="452.75" cy="231.25" r="3.25" stroke="#191A1C"/>
<circle cx="452.75" cy="238.75" r="3.25" stroke="#191A1C"/>
<circle cx="452.75" cy="246.25" r="3.25" stroke="#191A1C"/>
<circle cx="452.75" cy="253.75" r="3.25" stroke="#191A1C"/>
<circle cx="452.75" cy="261.25" r="3.25" stroke="#191A1C"/>
<circle cx="452.75" cy="268.75" r="3.25" stroke="#191A1C"/>
<circle cx="452.75" cy="276.25" r="3.25" stroke="#191A1C"/>
<circle cx="460.25" cy="231.25" r="3.25" stroke="#191A1C"/>
<circle cx="460.25" cy="238.75" r="3.25" stroke="#191A1C"/>
<circle cx="460.25" cy="246.25" r="3.25" stroke="#191A1C"/>
<circle cx="460.25" cy="253.75" r="3.25" stroke="#191A1C"/>
<circle cx="460.25" cy="261.25" r="3.25" stroke="#191A1C"/>
<circle cx="460.25" cy="268.75" r="3.25" stroke="#191A1C"/>
<circle cx="460.25" cy="276.25" r="3.25" stroke="#191A1C"/>
<circle cx="467.75" cy="231.25" r="3.25" stroke="#191A1C"/>
<circle cx="467.75" cy="238.75" r="3.25" stroke="#191A1C"/>
<circle cx="467.75" cy="246.25" r="3.25" stroke="#191A1C"/>
<circle cx="467.75" cy="253.75" r="3.25" stroke="#191A1C"/>
<circle cx="467.75" cy="261.25" r="3.25" stroke="#191A1C"/>
<circle cx="467.75" cy="268.75" r="3.25" stroke="#191A1C"/>
<circle cx="467.75" cy="276.25" r="3.25" stroke="#191A1C"/>
<circle cx="475.25" cy="231.25" r="3.25" stroke="#191A1C"/>
<circle cx="475.25" cy="238.75" r="3.25" stroke="#191A1C"/>
<circle cx="475.25" cy="246.25" r="3.25" stroke="#191A1C"/>
<circle cx="475.25" cy="253.75" r="3.25" stroke="#191A1C"/>
<circle cx="475.25" cy="261.25" r="3.25" stroke="#191A1C"/>
<circle cx="475.25" cy="268.75" r="3.25" stroke="#191A1C"/>
<circle cx="475.25" cy="276.25" r="3.25" stroke="#191A1C"/>
<circle cx="482.75" cy="231.25" r="3.25" stroke="#191A1C"/>
<circle cx="482.75" cy="238.75" r="3.25" stroke="#191A1C"/>
<circle cx="482.75" cy="246.25" r="3.25" stroke="#191A1C"/>
<circle cx="482.75" cy="253.75" r="3.25" stroke="#191A1C"/>
<circle cx="482.75" cy="261.25" r="3.25" stroke="#191A1C"/>
<circle cx="482.75" cy="268.75" r="3.25" stroke="#191A1C"/>
<circle cx="482.75" cy="276.25" r="3.25" stroke="#191A1C"/>
<circle cx="490.25" cy="231.25" r="3.25" stroke="#191A1C"/>
<circle cx="490.25" cy="238.75" r="3.25" stroke="#191A1C"/>
<circle cx="490.25" cy="246.25" r="3.25" stroke="#191A1C"/>
<circle cx="490.25" cy="253.75" r="3.25" stroke="#191A1C"/>
<circle cx="490.25" cy="261.25" r="3.25" stroke="#191A1C"/>
<circle cx="490.25" cy="268.75" r="3.25" stroke="#191A1C"/>
<circle cx="490.25" cy="276.25" r="3.25" stroke="#191A1C"/>
<circle cx="497.75" cy="231.25" r="3.25" stroke="#191A1C"/>
<circle cx="497.75" cy="238.75" r="3.25" stroke="#191A1C"/>
<circle cx="497.75" cy="246.25" r="3.25" stroke="#191A1C"/>
<circle cx="497.75" cy="253.75" r="3.25" stroke="#191A1C"/>
<circle cx="497.75" cy="261.25" r="3.25" stroke="#191A1C"/>
<circle cx="497.75" cy="268.75" r="3.25" stroke="#191A1C"/>
<circle cx="497.75" cy="276.25" r="3.25" stroke="#191A1C"/>
<circle cx="490.25" cy="291.25" r="4.25" stroke="#191A1C"/>
<rect x="424.5" y="18.5" width="79" height="79" stroke="#191A1C" stroke-dasharray="1 1"/>
<circle cx="430.25" cy="24.25" r="3.25" stroke="#191A1C" stroke-dasharray="1 1"/>
<circle cx="430.25" cy="31.75" r="3.25" stroke="#191A1C" stroke-dasharray="1 1"/>
<circle cx="430.25" cy="39.25" r="3.25" stroke="#191A1C" stroke-dasharray="1 1"/>
<circle cx="430.25" cy="46.75" r="3.25" stroke="#191A1C" stroke-dasharray="1 1"/>
<circle cx="430.25" cy="54.25" r="3.25" stroke="#191A1C" stroke-dasharray="1 1"/>
<circle cx="430.25" cy="61.75" r="3.25" stroke="#191A1C" stroke-dasharray="1 1"/>
<circle cx="430.25" cy="69.25" r="3.25" stroke="#191A1C" stroke-dasharray="1 1"/>
<circle cx="437.75" cy="24.25" r="3.25" stroke="#191A1C" stroke-dasharray="1 1"/>
<circle cx="437.75" cy="31.75" r="3.25" stroke="#191A1C" stroke-dasharray="1 1"/>
<circle cx="437.75" cy="39.25" r="3.25" stroke="#191A1C" stroke-dasharray="1 1"/>
<circle cx="437.75" cy="46.75" r="3.25" stroke="#191A1C" stroke-dasharray="1 1"/>
<circle cx="437.75" cy="54.25" r="3.25" stroke="#191A1C" stroke-dasharray="1 1"/>
<circle cx="437.75" cy="61.75" r="3.25" stroke="#191A1C" stroke-dasharray="1 1"/>
<circle cx="437.75" cy="69.25" r="3.25" stroke="#191A1C" stroke-dasharray="1 1"/>
<circle cx="445.25" cy="24.25" r="3.25" stroke="#191A1C" stroke-dasharray="1 1"/>
<circle cx="445.25" cy="31.75" r="3.25" stroke="#191A1C" stroke-dasharray="1 1"/>
<circle cx="445.25" cy="39.25" r="3.25" stroke="#191A1C" stroke-dasharray="1 1"/>
<circle cx="445.25" cy="46.75" r="3.25" stroke="#191A1C" stroke-dasharray="1 1"/>
<circle cx="445.25" cy="54.25" r="3.25" stroke="#191A1C" stroke-dasharray="1 1"/>
<circle cx="445.25" cy="61.75" r="3.25" stroke="#191A1C" stroke-dasharray="1 1"/>
<circle cx="445.25" cy="69.25" r="3.25" stroke="#191A1C" stroke-dasharray="1 1"/>
<circle cx="452.75" cy="24.25" r="3.25" stroke="#191A1C" stroke-dasharray="1 1"/>
<circle cx="452.75" cy="31.75" r="3.25" stroke="#191A1C" stroke-dasharray="1 1"/>
<circle cx="452.75" cy="39.25" r="3.25" stroke="#191A1C" stroke-dasharray="1 1"/>
<circle cx="452.75" cy="46.75" r="3.25" stroke="#191A1C" stroke-dasharray="1 1"/>
<circle cx="452.75" cy="54.25" r="3.25" stroke="#191A1C" stroke-dasharray="1 1"/>
<circle cx="452.75" cy="61.75" r="3.25" stroke="#191A1C" stroke-dasharray="1 1"/>
<circle cx="452.75" cy="69.25" r="3.25" stroke="#191A1C" stroke-dasharray="1 1"/>
<circle cx="460.25" cy="24.25" r="3.25" stroke="#191A1C" stroke-dasharray="1 1"/>
<circle cx="460.25" cy="31.75" r="3.25" stroke="#191A1C" stroke-dasharray="1 1"/>
<circle cx="460.25" cy="39.25" r="3.25" stroke="#191A1C" stroke-dasharray="1 1"/>
<circle cx="460.25" cy="46.75" r="3.25" stroke="#191A1C" stroke-dasharray="1 1"/>
<circle cx="460.25" cy="54.25" r="3.25" stroke="#191A1C" stroke-dasharray="1 1"/>
<circle cx="460.25" cy="61.75" r="3.25" stroke="#191A1C" stroke-dasharray="1 1"/>
<circle cx="460.25" cy="69.25" r="3.25" stroke="#191A1C" stroke-dasharray="1 1"/>
<circle cx="467.75" cy="24.25" r="3.25" stroke="#191A1C" stroke-dasharray="1 1"/>
<circle cx="467.75" cy="31.75" r="3.25" stroke="#191A1C" stroke-dasharray="1 1"/>
<circle cx="467.75" cy="39.25" r="3.25" stroke="#191A1C" stroke-dasharray="1 1"/>
<circle cx="467.75" cy="46.75" r="3.25" stroke="#191A1C" stroke-dasharray="1 1"/>
<circle cx="467.75" cy="54.25" r="3.25" stroke="#191A1C" stroke-dasharray="1 1"/>
<circle cx="467.75" cy="61.75" r="3.25" stroke="#191A1C" stroke-dasharray="1 1"/>
<circle cx="467.75" cy="69.25" r="3.25" stroke="#191A1C" stroke-dasharray="1 1"/>
<circle cx="475.25" cy="24.25" r="3.25" stroke="#191A1C" stroke-dasharray="1 1"/>
<circle cx="475.25" cy="31.75" r="3.25" stroke="#191A1C" stroke-dasharray="1 1"/>
<circle cx="475.25" cy="39.25" r="3.25" stroke="#191A1C" stroke-dasharray="1 1"/>
<circle cx="475.25" cy="46.75" r="3.25" stroke="#191A1C" stroke-dasharray="1 1"/>
<circle cx="475.25" cy="54.25" r="3.25" stroke="#191A1C" stroke-dasharray="1 1"/>
<circle cx="475.25" cy="61.75" r="3.25" stroke="#191A1C" stroke-dasharray="1 1"/>
<circle cx="475.25" cy="69.25" r="3.25" stroke="#191A1C" stroke-dasharray="1 1"/>
<circle cx="482.75" cy="24.25" r="3.25" stroke="#191A1C" stroke-dasharray="1 1"/>
<circle cx="482.75" cy="31.75" r="3.25" stroke="#191A1C" stroke-dasharray="1 1"/>
<circle cx="482.75" cy="39.25" r="3.25" stroke="#191A1C" stroke-dasharray="1 1"/>
<circle cx="482.75" cy="46.75" r="3.25" stroke="#191A1C" stroke-dasharray="1 1"/>
<circle cx="482.75" cy="54.25" r="3.25" stroke="#191A1C" stroke-dasharray="1 1"/>
<circle cx="482.75" cy="61.75" r="3.25" stroke="#191A1C" stroke-dasharray="1 1"/>
<circle cx="482.75" cy="69.25" r="3.25" stroke="#191A1C" stroke-dasharray="1 1"/>
<circle cx="490.25" cy="24.25" r="3.25" stroke="#191A1C" stroke-dasharray="1 1"/>
<circle cx="490.25" cy="31.75" r="3.25" stroke="#191A1C" stroke-dasharray="1 1"/>
<circle cx="490.25" cy="39.25" r="3.25" stroke="#191A1C" stroke-dasharray="1 1"/>
<circle cx="490.25" cy="46.75" r="3.25" stroke="#191A1C" stroke-dasharray="1 1"/>
<circle cx="490.25" cy="54.25" r="3.25" stroke="#191A1C" stroke-dasharray="1 1"/>
<circle cx="490.25" cy="61.75" r="3.25" stroke="#191A1C" stroke-dasharray="1 1"/>
<circle cx="490.25" cy="69.25" r="3.25" stroke="#191A1C" stroke-dasharray="1 1"/>
<circle cx="497.75" cy="24.25" r="3.25" stroke="#191A1C" stroke-dasharray="1 1"/>
<circle cx="497.75" cy="31.75" r="3.25" stroke="#191A1C" stroke-dasharray="1 1"/>
<circle cx="497.75" cy="39.25" r="3.25" stroke="#191A1C" stroke-dasharray="1 1"/>
<circle cx="497.75" cy="46.75" r="3.25" stroke="#191A1C" stroke-dasharray="1 1"/>
<circle cx="497.75" cy="54.25" r="3.25" stroke="#191A1C" stroke-dasharray="1 1"/>
<circle cx="497.75" cy="61.75" r="3.25" stroke="#191A1C" stroke-dasharray="1 1"/>
<circle cx="497.75" cy="69.25" r="3.25" stroke="#191A1C" stroke-dasharray="1 1"/>
<circle cx="490.25" cy="84.25" r="3.25" stroke="#191A1C" stroke-dasharray="1 1"/>
<rect x="7.5" y="140.5" width="119" height="79" rx="7.5" stroke="#191A1C"/>
<line x1="7" y1="157.5" x2="127" y2="157.5" stroke="#191A1C"/>
<circle cx="18" cy="150" r="2.5" stroke="#191A1C"/>
<circle cx="26" cy="150" r="2.5" stroke="#191A1C"/>
<circle cx="34" cy="150" r="2.5" stroke="#191A1C"/>
<path d="M285.495 167.901L280.22 173.176L275.576 163.79L278.239 157.822C278.912 156.625 280.012 156.623 280.686 157.822L285.495 167.901Z" stroke="#191A1C"/>
<path d="M292.331 161.122C293.321 160.17 294.346 160.495 294.607 161.844L300 193.186L282.121 203.901C281.495 204.247 279.838 204.396 279.838 204.396C279.838 204.396 278.326 204.216 277.75 203.896L260 193.443L292.331 161.122Z" stroke="#191A1C"/>
<path d="M275.582 163.79L260.006 193.444L266.944 150.104C267.199 148.754 267.968 148.624 268.653 149.815L275.582 163.79Z" stroke="#191A1C"/>
<path d="M47.7032 242H45.5612L44.6512 232.704H44.4832L43.5732 242H41.4312L40.4372 232.2H41.5012L42.4392 241.496H42.6072L43.4892 232.2H45.6452L46.5272 241.496H46.6952L47.6332 232.2H48.6972L47.7032 242ZM50.8715 238.864C50.8995 239.555 51.1141 240.11 51.5155 240.53C51.9168 240.95 52.4768 241.16 53.1955 241.16C53.5221 241.16 53.8068 241.123 54.0495 241.048C54.2921 240.973 54.4975 240.871 54.6655 240.74C54.8428 240.609 54.9828 240.46 55.0855 240.292C55.1975 240.115 55.2861 239.928 55.3515 239.732L56.3875 240.012C56.1915 240.656 55.8275 241.183 55.2955 241.594C54.7728 241.995 54.0635 242.196 53.1675 242.196C52.6728 242.196 52.2155 242.112 51.7955 241.944C51.3848 241.767 51.0301 241.519 50.7315 241.202C50.4328 240.885 50.1995 240.507 50.0315 240.068C49.8635 239.629 49.7795 239.144 49.7795 238.612V238.276C49.7795 237.791 49.8635 237.338 50.0315 236.918C50.2088 236.498 50.4515 236.139 50.7595 235.84C51.0675 235.532 51.4268 235.294 51.8375 235.126C52.2575 234.949 52.7101 234.86 53.1955 234.86C53.7648 234.86 54.2548 234.967 54.6655 235.182C55.0855 235.387 55.4261 235.644 55.6875 235.952C55.9581 236.26 56.1541 236.596 56.2755 236.96C56.4061 237.324 56.4715 237.66 56.4715 237.968V238.864H50.8715ZM53.1955 235.896C52.8875 235.896 52.5981 235.947 52.3275 236.05C52.0661 236.143 51.8328 236.279 51.6275 236.456C51.4315 236.633 51.2681 236.843 51.1375 237.086C51.0161 237.319 50.9368 237.576 50.8995 237.856H55.3795C55.3608 237.557 55.2861 237.287 55.1555 237.044C55.0341 236.801 54.8708 236.596 54.6655 236.428C54.4695 236.26 54.2408 236.129 53.9795 236.036C53.7275 235.943 53.4661 235.896 53.1955 235.896ZM59.4857 242H58.3937V232.2H59.4857V236.148H59.6537C59.8964 235.728 60.2324 235.411 60.6617 235.196C61.0911 234.972 61.5577 234.86 62.0617 234.86C62.4911 234.86 62.8971 234.939 63.2797 235.098C63.6624 235.257 63.9984 235.485 64.2877 235.784C64.5864 236.083 64.8197 236.451 64.9877 236.89C65.1651 237.329 65.2537 237.828 65.2537 238.388V238.668C65.2537 239.237 65.1697 239.741 65.0017 240.18C64.8337 240.619 64.6004 240.987 64.3017 241.286C64.0124 241.585 63.6717 241.813 63.2797 241.972C62.8877 242.121 62.4724 242.196 62.0337 242.196C61.8097 242.196 61.5811 242.168 61.3477 242.112C61.1144 242.065 60.8904 241.991 60.6757 241.888C60.4704 241.776 60.2791 241.645 60.1017 241.496C59.9244 241.337 59.7751 241.151 59.6537 240.936H59.4857V242ZM61.8097 241.16C62.1457 241.16 62.4537 241.104 62.7337 240.992C63.0137 240.871 63.2564 240.703 63.4617 240.488C63.6764 240.273 63.8397 240.012 63.9517 239.704C64.0731 239.396 64.1337 239.051 64.1337 238.668V238.388C64.1337 238.015 64.0731 237.679 63.9517 237.38C63.8397 237.072 63.6764 236.811 63.4617 236.596C63.2564 236.372 63.0091 236.199 62.7197 236.078C62.4397 235.957 62.1364 235.896 61.8097 235.896C61.4831 235.896 61.1797 235.961 60.8997 236.092C60.6197 236.213 60.3724 236.386 60.1577 236.61C59.9524 236.834 59.7891 237.105 59.6677 237.422C59.5464 237.73 59.4857 238.071 59.4857 238.444V238.612C59.4857 238.995 59.5464 239.345 59.6677 239.662C59.7891 239.97 59.9524 240.236 60.1577 240.46C60.3724 240.684 60.6197 240.857 60.8997 240.978C61.1797 241.099 61.4831 241.16 61.8097 241.16ZM76.6723 232.2V238.696C76.6723 239.489 76.8543 240.091 77.2183 240.502C77.5916 240.903 78.1376 241.104 78.8563 241.104C79.5749 241.104 80.1163 240.903 80.4803 240.502C80.8536 240.091 81.0403 239.489 81.0403 238.696V232.2H82.2163V238.696C82.2163 239.835 81.9176 240.703 81.3203 241.3C80.7229 241.897 79.9016 242.196 78.8563 242.196C77.8109 242.196 76.9896 241.897 76.3923 241.3C75.7949 240.703 75.4963 239.835 75.4963 238.696V232.2H76.6723ZM84.3205 232.2H90.5365V233.292H88.0165V240.908H90.5365V242H84.3205V240.908H86.8405V233.292H84.3205V232.2Z" fill="#191A1C"/>
<path d="M391.514 111.2H392.774L395.336 120.496H395.504L398.066 111.2H399.326L396.554 121H394.286L391.514 111.2ZM403.082 111.984C403.082 111.713 403.175 111.485 403.362 111.298C403.558 111.102 403.791 111.004 404.062 111.004C404.333 111.004 404.561 111.102 404.748 111.298C404.944 111.485 405.042 111.713 405.042 111.984C405.042 112.255 404.944 112.488 404.748 112.684C404.561 112.871 404.333 112.964 404.062 112.964C403.791 112.964 403.558 112.871 403.362 112.684C403.175 112.488 403.082 112.255 403.082 111.984ZM401.094 119.992H403.53V115.064H401.346V114.056H404.622V119.992H406.89V121H401.094V119.992ZM409.106 114.056H411.626V114.98H411.794C411.972 114.597 412.224 114.317 412.55 114.14C412.877 113.953 413.25 113.86 413.67 113.86C414.37 113.86 414.935 114.089 415.364 114.546C415.794 115.003 416.022 115.671 416.05 116.548L414.902 116.716C414.902 116.072 414.748 115.61 414.44 115.33C414.132 115.041 413.754 114.896 413.306 114.896C413.017 114.896 412.765 114.952 412.55 115.064C412.345 115.176 412.172 115.33 412.032 115.526C411.892 115.722 411.79 115.951 411.724 116.212C411.659 116.473 411.626 116.753 411.626 117.052V119.992H413.39V121H408.938V119.992H410.534V115.064H409.106V114.056ZM417.833 114.056H420.017V111.2H421.109V114.056H423.797V115.064H421.109V119.572C421.109 119.852 421.235 119.992 421.487 119.992H423.461V121H421.095C420.777 121 420.516 120.897 420.311 120.692C420.115 120.487 420.017 120.225 420.017 119.908V115.064H417.833V114.056ZM431.599 114.056H432.691V121H431.599V119.74H431.431C431.207 120.188 430.913 120.543 430.549 120.804C430.185 121.065 429.723 121.196 429.163 121.196C428.78 121.196 428.425 121.131 428.099 121C427.781 120.879 427.506 120.692 427.273 120.44C427.049 120.188 426.871 119.875 426.741 119.502C426.619 119.129 426.559 118.695 426.559 118.2V114.056H427.651V118.06C427.651 118.788 427.8 119.32 428.099 119.656C428.397 119.992 428.855 120.16 429.471 120.16C430.133 120.16 430.651 119.936 431.025 119.488C431.407 119.031 431.599 118.424 431.599 117.668V114.056ZM440.255 119.824H440.087C439.863 120.291 439.55 120.636 439.149 120.86C438.757 121.084 438.342 121.196 437.903 121.196C437.446 121.196 437.021 121.121 436.629 120.972C436.237 120.813 435.892 120.585 435.593 120.286C435.304 119.978 435.075 119.605 434.907 119.166C434.739 118.727 434.655 118.219 434.655 117.64V117.416C434.655 116.847 434.739 116.343 434.907 115.904C435.075 115.465 435.304 115.097 435.593 114.798C435.892 114.49 436.237 114.257 436.629 114.098C437.021 113.939 437.436 113.86 437.875 113.86C438.351 113.86 438.78 113.967 439.163 114.182C439.555 114.387 439.863 114.709 440.087 115.148H440.255V114.056H441.347V119.572C441.347 119.852 441.473 119.992 441.725 119.992H442.075V121H441.333C441.016 121 440.754 120.897 440.549 120.692C440.353 120.487 440.255 120.225 440.255 119.908V119.824ZM438.015 120.16C438.342 120.16 438.64 120.099 438.911 119.978C439.191 119.857 439.429 119.684 439.625 119.46C439.821 119.236 439.975 118.97 440.087 118.662C440.199 118.345 440.255 117.995 440.255 117.612V117.444C440.255 117.071 440.199 116.73 440.087 116.422C439.975 116.105 439.816 115.834 439.611 115.61C439.415 115.386 439.177 115.213 438.897 115.092C438.626 114.961 438.332 114.896 438.015 114.896C437.688 114.896 437.39 114.957 437.119 115.078C436.848 115.199 436.61 115.372 436.405 115.596C436.209 115.811 436.055 116.077 435.943 116.394C435.831 116.702 435.775 117.043 435.775 117.416V117.64C435.775 118.433 435.98 119.054 436.391 119.502C436.811 119.941 437.352 120.16 438.015 120.16ZM443.787 119.992H446.307V112.208H443.871V111.2H447.399V119.992H449.919V121H443.787V119.992ZM462.08 116.968V121H460.904V111.2H464.404C464.908 111.2 465.347 111.275 465.72 111.424C466.093 111.564 466.401 111.755 466.644 111.998C466.896 112.241 467.083 112.525 467.204 112.852C467.335 113.169 467.4 113.505 467.4 113.86V114.28C467.4 114.635 467.335 114.975 467.204 115.302C467.083 115.629 466.896 115.918 466.644 116.17C466.392 116.413 466.079 116.609 465.706 116.758C465.333 116.898 464.899 116.968 464.404 116.968H462.08ZM462.08 115.876H464.264C465.571 115.876 466.224 115.316 466.224 114.196V113.944C466.224 113.449 466.061 113.053 465.734 112.754C465.417 112.446 464.927 112.292 464.264 112.292H462.08V115.876ZM469.112 114.056H471.632V114.98H471.8C471.977 114.597 472.229 114.317 472.556 114.14C472.883 113.953 473.256 113.86 473.676 113.86C474.376 113.86 474.941 114.089 475.37 114.546C475.799 115.003 476.028 115.671 476.056 116.548L474.908 116.716C474.908 116.072 474.754 115.61 474.446 115.33C474.138 115.041 473.76 114.896 473.312 114.896C473.023 114.896 472.771 114.952 472.556 115.064C472.351 115.176 472.178 115.33 472.038 115.526C471.898 115.722 471.795 115.951 471.73 116.212C471.665 116.473 471.632 116.753 471.632 117.052V119.992H473.396V121H468.944V119.992H470.54V115.064H469.112V114.056ZM484.628 117.612C484.628 118.191 484.53 118.704 484.334 119.152C484.148 119.591 483.896 119.964 483.578 120.272C483.261 120.571 482.888 120.799 482.458 120.958C482.038 121.117 481.6 121.196 481.142 121.196C480.676 121.196 480.232 121.117 479.812 120.958C479.392 120.799 479.024 120.571 478.706 120.272C478.389 119.964 478.132 119.591 477.936 119.152C477.75 118.704 477.656 118.191 477.656 117.612V117.444C477.656 116.875 477.75 116.371 477.936 115.932C478.132 115.484 478.389 115.106 478.706 114.798C479.033 114.49 479.406 114.257 479.826 114.098C480.246 113.939 480.685 113.86 481.142 113.86C481.6 113.86 482.038 113.939 482.458 114.098C482.878 114.257 483.247 114.49 483.564 114.798C483.891 115.106 484.148 115.484 484.334 115.932C484.53 116.371 484.628 116.875 484.628 117.444V117.612ZM481.142 120.16C481.478 120.16 481.786 120.104 482.066 119.992C482.356 119.871 482.608 119.698 482.822 119.474C483.037 119.25 483.205 118.984 483.326 118.676C483.448 118.359 483.508 118.004 483.508 117.612V117.444C483.508 117.071 483.448 116.73 483.326 116.422C483.205 116.105 483.037 115.834 482.822 115.61C482.608 115.386 482.356 115.213 482.066 115.092C481.777 114.961 481.469 114.896 481.142 114.896C480.816 114.896 480.508 114.961 480.218 115.092C479.929 115.213 479.677 115.386 479.462 115.61C479.248 115.834 479.08 116.105 478.958 116.422C478.837 116.73 478.776 117.071 478.776 117.444V117.612C478.776 118.004 478.837 118.359 478.958 118.676C479.08 118.984 479.248 119.25 479.462 119.474C479.677 119.698 479.924 119.871 480.204 119.992C480.494 120.104 480.806 120.16 481.142 120.16ZM486.411 114.056H488.595V111.2H489.687V114.056H492.375V115.064H489.687V119.572C489.687 119.852 489.813 119.992 490.065 119.992H492.039V121H489.673C489.355 121 489.094 120.897 488.889 120.692C488.693 120.487 488.595 120.225 488.595 119.908V115.064H486.411V114.056ZM501.773 117.612C501.773 118.191 501.675 118.704 501.479 119.152C501.292 119.591 501.04 119.964 500.723 120.272C500.406 120.571 500.032 120.799 499.603 120.958C499.183 121.117 498.744 121.196 498.287 121.196C497.82 121.196 497.377 121.117 496.957 120.958C496.537 120.799 496.168 120.571 495.851 120.272C495.534 119.964 495.277 119.591 495.081 119.152C494.894 118.704 494.801 118.191 494.801 117.612V117.444C494.801 116.875 494.894 116.371 495.081 115.932C495.277 115.484 495.534 115.106 495.851 114.798C496.178 114.49 496.551 114.257 496.971 114.098C497.391 113.939 497.83 113.86 498.287 113.86C498.744 113.86 499.183 113.939 499.603 114.098C500.023 114.257 500.392 114.49 500.709 114.798C501.036 115.106 501.292 115.484 501.479 115.932C501.675 116.371 501.773 116.875 501.773 117.444V117.612ZM498.287 120.16C498.623 120.16 498.931 120.104 499.211 119.992C499.5 119.871 499.752 119.698 499.967 119.474C500.182 119.25 500.35 118.984 500.471 118.676C500.592 118.359 500.653 118.004 500.653 117.612V117.444C500.653 117.071 500.592 116.73 500.471 116.422C500.35 116.105 500.182 115.834 499.967 115.61C499.752 115.386 499.5 115.213 499.211 115.092C498.922 114.961 498.614 114.896 498.287 114.896C497.96 114.896 497.652 114.961 497.363 115.092C497.074 115.213 496.822 115.386 496.607 115.61C496.392 115.834 496.224 116.105 496.103 116.422C495.982 116.73 495.921 117.071 495.921 117.444V117.612C495.921 118.004 495.982 118.359 496.103 118.676C496.224 118.984 496.392 119.25 496.607 119.474C496.822 119.698 497.069 119.871 497.349 119.992C497.638 120.104 497.951 120.16 498.287 120.16ZM503.555 114.056H505.739V111.2H506.831V114.056H509.519V115.064H506.831V119.572C506.831 119.852 506.957 119.992 507.209 119.992H509.183V121H506.817C506.5 121 506.239 120.897 506.033 120.692C505.837 120.487 505.739 120.225 505.739 119.908V115.064H503.555V114.056ZM517.405 119.74H517.237C517.013 120.188 516.719 120.543 516.355 120.804C515.991 121.065 515.529 121.196 514.969 121.196C514.587 121.196 514.232 121.131 513.905 121C513.588 120.879 513.313 120.692 513.079 120.44C512.855 120.188 512.678 119.875 512.547 119.502C512.426 119.129 512.365 118.695 512.365 118.2V114.056H513.457V118.06C513.457 118.788 513.607 119.32 513.905 119.656C514.204 119.992 514.661 120.16 515.277 120.16C515.94 120.16 516.458 119.936 516.831 119.488C517.214 119.031 517.405 118.424 517.405 117.668V114.056H518.497V122.708C518.497 123.025 518.395 123.287 518.189 123.492C517.993 123.697 517.737 123.8 517.419 123.8H513.457V122.792H517.027C517.279 122.792 517.405 122.652 517.405 122.372V119.74ZM521.778 123.8H520.686V114.056H521.778V115.148H521.946C522.188 114.728 522.524 114.411 522.954 114.196C523.383 113.972 523.85 113.86 524.354 113.86C524.783 113.86 525.189 113.939 525.572 114.098C525.954 114.257 526.29 114.485 526.58 114.784C526.878 115.083 527.112 115.451 527.28 115.89C527.457 116.329 527.546 116.828 527.546 117.388V117.668C527.546 118.237 527.462 118.741 527.294 119.18C527.126 119.619 526.892 119.987 526.594 120.286C526.304 120.585 525.964 120.813 525.572 120.972C525.18 121.121 524.764 121.196 524.326 121.196C524.102 121.196 523.873 121.168 523.64 121.112C523.406 121.065 523.182 120.991 522.968 120.888C522.762 120.776 522.571 120.645 522.394 120.496C522.216 120.337 522.067 120.151 521.946 119.936H521.778V123.8ZM524.102 120.16C524.438 120.16 524.746 120.104 525.026 119.992C525.306 119.871 525.548 119.703 525.754 119.488C525.968 119.273 526.132 119.012 526.244 118.704C526.365 118.396 526.426 118.051 526.426 117.668V117.388C526.426 117.015 526.365 116.679 526.244 116.38C526.132 116.072 525.968 115.811 525.754 115.596C525.548 115.372 525.301 115.199 525.012 115.078C524.732 114.957 524.428 114.896 524.102 114.896C523.775 114.896 523.472 114.961 523.192 115.092C522.912 115.213 522.664 115.386 522.45 115.61C522.244 115.834 522.081 116.105 521.96 116.422C521.838 116.73 521.778 117.071 521.778 117.444V117.612C521.778 117.995 521.838 118.345 521.96 118.662C522.081 118.97 522.244 119.236 522.45 119.46C522.664 119.684 522.912 119.857 523.192 119.978C523.472 120.099 523.775 120.16 524.102 120.16ZM530.308 117.864C530.336 118.555 530.551 119.11 530.952 119.53C531.353 119.95 531.913 120.16 532.632 120.16C532.959 120.16 533.243 120.123 533.486 120.048C533.729 119.973 533.934 119.871 534.102 119.74C534.279 119.609 534.419 119.46 534.522 119.292C534.634 119.115 534.723 118.928 534.788 118.732L535.824 119.012C535.628 119.656 535.264 120.183 534.732 120.594C534.209 120.995 533.5 121.196 532.604 121.196C532.109 121.196 531.652 121.112 531.232 120.944C530.821 120.767 530.467 120.519 530.168 120.202C529.869 119.885 529.636 119.507 529.468 119.068C529.3 118.629 529.216 118.144 529.216 117.612V117.276C529.216 116.791 529.3 116.338 529.468 115.918C529.645 115.498 529.888 115.139 530.196 114.84C530.504 114.532 530.863 114.294 531.274 114.126C531.694 113.949 532.147 113.86 532.632 113.86C533.201 113.86 533.691 113.967 534.102 114.182C534.522 114.387 534.863 114.644 535.124 114.952C535.395 115.26 535.591 115.596 535.712 115.96C535.843 116.324 535.908 116.66 535.908 116.968V117.864H530.308ZM532.632 114.896C532.324 114.896 532.035 114.947 531.764 115.05C531.503 115.143 531.269 115.279 531.064 115.456C530.868 115.633 530.705 115.843 530.574 116.086C530.453 116.319 530.373 116.576 530.336 116.856H534.816C534.797 116.557 534.723 116.287 534.592 116.044C534.471 115.801 534.307 115.596 534.102 115.428C533.906 115.26 533.677 115.129 533.416 115.036C533.164 114.943 532.903 114.896 532.632 114.896Z" fill="#191A1C"/>
<path d="M247.541 217.2H253.561V218.292H248.717V221.54H253.477V222.632H248.717V227H247.541V217.2ZM258.157 217.984C258.157 217.713 258.251 217.485 258.437 217.298C258.633 217.102 258.867 217.004 259.137 217.004C259.408 217.004 259.637 217.102 259.823 217.298C260.019 217.485 260.117 217.713 260.117 217.984C260.117 218.255 260.019 218.488 259.823 218.684C259.637 218.871 259.408 218.964 259.137 218.964C258.867 218.964 258.633 218.871 258.437 218.684C258.251 218.488 258.157 218.255 258.157 217.984ZM256.169 225.992H258.605V221.064H256.421V220.056H259.697V225.992H261.965V227H256.169V225.992ZM264.181 220.056H266.701V220.98H266.869C267.047 220.597 267.299 220.317 267.625 220.14C267.952 219.953 268.325 219.86 268.745 219.86C269.445 219.86 270.01 220.089 270.439 220.546C270.869 221.003 271.097 221.671 271.125 222.548L269.977 222.716C269.977 222.072 269.823 221.61 269.515 221.33C269.207 221.041 268.829 220.896 268.381 220.896C268.092 220.896 267.84 220.952 267.625 221.064C267.42 221.176 267.247 221.33 267.107 221.526C266.967 221.722 266.865 221.951 266.799 222.212C266.734 222.473 266.701 222.753 266.701 223.052V225.992H268.465V227H264.013V225.992H265.609V221.064H264.181V220.056ZM273.944 223.864C273.972 224.555 274.186 225.11 274.588 225.53C274.989 225.95 275.549 226.16 276.268 226.16C276.594 226.16 276.879 226.123 277.122 226.048C277.364 225.973 277.57 225.871 277.738 225.74C277.915 225.609 278.055 225.46 278.158 225.292C278.27 225.115 278.358 224.928 278.424 224.732L279.46 225.012C279.264 225.656 278.9 226.183 278.368 226.594C277.845 226.995 277.136 227.196 276.24 227.196C275.745 227.196 275.288 227.112 274.868 226.944C274.457 226.767 274.102 226.519 273.804 226.202C273.505 225.885 273.272 225.507 273.104 225.068C272.936 224.629 272.852 224.144 272.852 223.612V223.276C272.852 222.791 272.936 222.338 273.104 221.918C273.281 221.498 273.524 221.139 273.832 220.84C274.14 220.532 274.499 220.294 274.91 220.126C275.33 219.949 275.782 219.86 276.268 219.86C276.837 219.86 277.327 219.967 277.738 220.182C278.158 220.387 278.498 220.644 278.76 220.952C279.03 221.26 279.226 221.596 279.348 221.96C279.478 222.324 279.544 222.66 279.544 222.968V223.864H273.944ZM276.268 220.896C275.96 220.896 275.67 220.947 275.4 221.05C275.138 221.143 274.905 221.279 274.7 221.456C274.504 221.633 274.34 221.843 274.21 222.086C274.088 222.319 274.009 222.576 273.972 222.856H278.452C278.433 222.557 278.358 222.287 278.228 222.044C278.106 221.801 277.943 221.596 277.738 221.428C277.542 221.26 277.313 221.129 277.052 221.036C276.8 220.943 276.538 220.896 276.268 220.896ZM282.558 227H281.466V217.2H282.558V221.148H282.726C282.969 220.728 283.305 220.411 283.734 220.196C284.163 219.972 284.63 219.86 285.134 219.86C285.563 219.86 285.969 219.939 286.352 220.098C286.735 220.257 287.071 220.485 287.36 220.784C287.659 221.083 287.892 221.451 288.06 221.89C288.237 222.329 288.326 222.828 288.326 223.388V223.668C288.326 224.237 288.242 224.741 288.074 225.18C287.906 225.619 287.673 225.987 287.374 226.286C287.085 226.585 286.744 226.813 286.352 226.972C285.96 227.121 285.545 227.196 285.106 227.196C284.882 227.196 284.653 227.168 284.42 227.112C284.187 227.065 283.963 226.991 283.748 226.888C283.543 226.776 283.351 226.645 283.174 226.496C282.997 226.337 282.847 226.151 282.726 225.936H282.558V227ZM284.882 226.16C285.218 226.16 285.526 226.104 285.806 225.992C286.086 225.871 286.329 225.703 286.534 225.488C286.749 225.273 286.912 225.012 287.024 224.704C287.145 224.396 287.206 224.051 287.206 223.668V223.388C287.206 223.015 287.145 222.679 287.024 222.38C286.912 222.072 286.749 221.811 286.534 221.596C286.329 221.372 286.081 221.199 285.792 221.078C285.512 220.957 285.209 220.896 284.882 220.896C284.555 220.896 284.252 220.961 283.972 221.092C283.692 221.213 283.445 221.386 283.23 221.61C283.025 221.834 282.861 222.105 282.74 222.422C282.619 222.73 282.558 223.071 282.558 223.444V223.612C282.558 223.995 282.619 224.345 282.74 224.662C282.861 224.97 283.025 225.236 283.23 225.46C283.445 225.684 283.692 225.857 283.972 225.978C284.252 226.099 284.555 226.16 284.882 226.16ZM295.33 225.824H295.162C294.938 226.291 294.626 226.636 294.224 226.86C293.832 227.084 293.417 227.196 292.978 227.196C292.521 227.196 292.096 227.121 291.704 226.972C291.312 226.813 290.967 226.585 290.668 226.286C290.379 225.978 290.15 225.605 289.982 225.166C289.814 224.727 289.73 224.219 289.73 223.64V223.416C289.73 222.847 289.814 222.343 289.982 221.904C290.15 221.465 290.379 221.097 290.668 220.798C290.967 220.49 291.312 220.257 291.704 220.098C292.096 219.939 292.512 219.86 292.95 219.86C293.426 219.86 293.856 219.967 294.238 220.182C294.63 220.387 294.938 220.709 295.162 221.148H295.33V220.056H296.422V225.572C296.422 225.852 296.548 225.992 296.8 225.992H297.15V227H296.408C296.091 227 295.83 226.897 295.624 226.692C295.428 226.487 295.33 226.225 295.33 225.908V225.824ZM293.09 226.16C293.417 226.16 293.716 226.099 293.986 225.978C294.266 225.857 294.504 225.684 294.7 225.46C294.896 225.236 295.05 224.97 295.162 224.662C295.274 224.345 295.33 223.995 295.33 223.612V223.444C295.33 223.071 295.274 222.73 295.162 222.422C295.05 222.105 294.892 221.834 294.686 221.61C294.49 221.386 294.252 221.213 293.972 221.092C293.702 220.961 293.408 220.896 293.09 220.896C292.764 220.896 292.465 220.957 292.194 221.078C291.924 221.199 291.686 221.372 291.48 221.596C291.284 221.811 291.13 222.077 291.018 222.394C290.906 222.702 290.85 223.043 290.85 223.416V223.64C290.85 224.433 291.056 225.054 291.466 225.502C291.886 225.941 292.428 226.16 293.09 226.16ZM300.305 221.848C300.305 222.184 300.445 222.441 300.725 222.618C301.014 222.795 301.537 222.912 302.293 222.968C303.105 223.033 303.721 223.229 304.141 223.556C304.57 223.873 304.785 224.34 304.785 224.956V225.04C304.785 225.376 304.715 225.679 304.575 225.95C304.444 226.211 304.257 226.435 304.015 226.622C303.781 226.809 303.492 226.949 303.147 227.042C302.811 227.145 302.442 227.196 302.041 227.196C301.499 227.196 301.033 227.126 300.641 226.986C300.258 226.837 299.936 226.645 299.675 226.412C299.423 226.169 299.231 225.899 299.101 225.6C298.97 225.292 298.895 224.984 298.877 224.676L299.913 224.424C299.959 224.956 300.165 225.385 300.529 225.712C300.893 226.029 301.378 226.188 301.985 226.188C302.498 226.188 302.909 226.09 303.217 225.894C303.534 225.689 303.693 225.404 303.693 225.04C303.693 224.648 303.539 224.368 303.231 224.2C302.923 224.032 302.423 223.925 301.733 223.878C300.93 223.822 300.314 223.635 299.885 223.318C299.455 223.001 299.241 222.539 299.241 221.932V221.848C299.241 221.521 299.311 221.237 299.451 220.994C299.591 220.742 299.777 220.532 300.011 220.364C300.253 220.196 300.524 220.07 300.823 219.986C301.121 219.902 301.434 219.86 301.761 219.86C302.218 219.86 302.619 219.925 302.965 220.056C303.31 220.177 303.599 220.341 303.833 220.546C304.066 220.742 304.243 220.971 304.365 221.232C304.495 221.493 304.579 221.755 304.617 222.016L303.581 222.268C303.534 221.82 303.352 221.47 303.035 221.218C302.727 220.966 302.321 220.84 301.817 220.84C301.621 220.84 301.429 220.863 301.243 220.91C301.065 220.947 300.907 221.008 300.767 221.092C300.627 221.176 300.515 221.283 300.431 221.414C300.347 221.535 300.305 221.68 300.305 221.848ZM308.233 223.864C308.261 224.555 308.475 225.11 308.877 225.53C309.278 225.95 309.838 226.16 310.557 226.16C310.883 226.16 311.168 226.123 311.411 226.048C311.653 225.973 311.859 225.871 312.027 225.74C312.204 225.609 312.344 225.46 312.447 225.292C312.559 225.115 312.647 224.928 312.713 224.732L313.749 225.012C313.553 225.656 313.189 226.183 312.657 226.594C312.134 226.995 311.425 227.196 310.529 227.196C310.034 227.196 309.577 227.112 309.157 226.944C308.746 226.767 308.391 226.519 308.093 226.202C307.794 225.885 307.561 225.507 307.393 225.068C307.225 224.629 307.141 224.144 307.141 223.612V223.276C307.141 222.791 307.225 222.338 307.393 221.918C307.57 221.498 307.813 221.139 308.121 220.84C308.429 220.532 308.788 220.294 309.199 220.126C309.619 219.949 310.071 219.86 310.557 219.86C311.126 219.86 311.616 219.967 312.027 220.182C312.447 220.387 312.787 220.644 313.049 220.952C313.319 221.26 313.515 221.596 313.637 221.96C313.767 222.324 313.833 222.66 313.833 222.968V223.864H308.233ZM310.557 220.896C310.249 220.896 309.959 220.947 309.689 221.05C309.427 221.143 309.194 221.279 308.989 221.456C308.793 221.633 308.629 221.843 308.499 222.086C308.377 222.319 308.298 222.576 308.261 222.856H312.741C312.722 222.557 312.647 222.287 312.517 222.044C312.395 221.801 312.232 221.596 312.027 221.428C311.831 221.26 311.602 221.129 311.341 221.036C311.089 220.943 310.827 220.896 310.557 220.896Z" fill="#191A1C"/>
<path d="M388.372 318.2H389.548V322.54H393.72V318.2H394.896V328H393.72V323.632H389.548V328H388.372V318.2ZM402.18 326.824H402.012C401.788 327.291 401.475 327.636 401.074 327.86C400.682 328.084 400.267 328.196 399.828 328.196C399.371 328.196 398.946 328.121 398.554 327.972C398.162 327.813 397.817 327.585 397.518 327.286C397.229 326.978 397 326.605 396.832 326.166C396.664 325.727 396.58 325.219 396.58 324.64V324.416C396.58 323.847 396.664 323.343 396.832 322.904C397 322.465 397.229 322.097 397.518 321.798C397.817 321.49 398.162 321.257 398.554 321.098C398.946 320.939 399.361 320.86 399.8 320.86C400.276 320.86 400.705 320.967 401.088 321.182C401.48 321.387 401.788 321.709 402.012 322.148H402.18V321.056H403.272V326.572C403.272 326.852 403.398 326.992 403.65 326.992H404V328H403.258C402.941 328 402.679 327.897 402.474 327.692C402.278 327.487 402.18 327.225 402.18 326.908V326.824ZM399.94 327.16C400.267 327.16 400.565 327.099 400.836 326.978C401.116 326.857 401.354 326.684 401.55 326.46C401.746 326.236 401.9 325.97 402.012 325.662C402.124 325.345 402.18 324.995 402.18 324.612V324.444C402.18 324.071 402.124 323.73 402.012 323.422C401.9 323.105 401.741 322.834 401.536 322.61C401.34 322.386 401.102 322.213 400.822 322.092C400.551 321.961 400.257 321.896 399.94 321.896C399.613 321.896 399.315 321.957 399.044 322.078C398.773 322.199 398.535 322.372 398.33 322.596C398.134 322.811 397.98 323.077 397.868 323.394C397.756 323.702 397.7 324.043 397.7 324.416V324.64C397.7 325.433 397.905 326.054 398.316 326.502C398.736 326.941 399.277 327.16 399.94 327.16ZM405.32 321.056H407.84V321.98H408.008C408.185 321.597 408.437 321.317 408.764 321.14C409.091 320.953 409.464 320.86 409.884 320.86C410.584 320.86 411.149 321.089 411.578 321.546C412.007 322.003 412.236 322.671 412.264 323.548L411.116 323.716C411.116 323.072 410.962 322.61 410.654 322.33C410.346 322.041 409.968 321.896 409.52 321.896C409.231 321.896 408.979 321.952 408.764 322.064C408.559 322.176 408.386 322.33 408.246 322.526C408.106 322.722 408.003 322.951 407.938 323.212C407.873 323.473 407.84 323.753 407.84 324.052V326.992H409.604V328H405.152V326.992H406.748V322.064H405.32V321.056ZM419.66 326.936H419.492C419.38 327.151 419.236 327.337 419.058 327.496C418.89 327.655 418.704 327.785 418.498 327.888C418.302 327.991 418.092 328.065 417.868 328.112C417.644 328.168 417.43 328.196 417.224 328.196C416.758 328.196 416.324 328.117 415.922 327.958C415.521 327.799 415.166 327.571 414.858 327.272C414.56 326.973 414.322 326.605 414.144 326.166C413.976 325.718 413.892 325.209 413.892 324.64V324.416C413.892 323.856 413.981 323.357 414.158 322.918C414.336 322.47 414.574 322.097 414.872 321.798C415.171 321.49 415.521 321.257 415.922 321.098C416.324 320.939 416.748 320.86 417.196 320.86C417.672 320.86 418.116 320.967 418.526 321.182C418.946 321.387 419.268 321.709 419.492 322.148H419.66V318.2H420.752V328H419.66V326.936ZM417.336 327.16C417.663 327.16 417.966 327.099 418.246 326.978C418.526 326.857 418.769 326.684 418.974 326.46C419.189 326.236 419.357 325.97 419.478 325.662C419.6 325.345 419.66 324.995 419.66 324.612V324.444C419.66 324.071 419.6 323.73 419.478 323.422C419.357 323.105 419.189 322.834 418.974 322.61C418.769 322.386 418.522 322.213 418.232 322.092C417.952 321.961 417.654 321.896 417.336 321.896C417.01 321.896 416.702 321.957 416.412 322.078C416.132 322.199 415.885 322.372 415.67 322.596C415.465 322.82 415.302 323.086 415.18 323.394C415.068 323.702 415.012 324.043 415.012 324.416V324.64C415.012 325.032 415.068 325.382 415.18 325.69C415.302 325.998 415.465 326.264 415.67 326.488C415.885 326.703 416.132 326.871 416.412 326.992C416.692 327.104 417 327.16 417.336 327.16ZM428.863 328H426.847L426.007 321.56H425.839L424.999 328H422.983L421.891 321.056H423.011L423.935 327.496H424.103L424.915 321.056H426.931L427.743 327.496H427.911L428.835 321.056H429.955L428.863 328ZM436.469 326.824H436.301C436.077 327.291 435.764 327.636 435.363 327.86C434.971 328.084 434.556 328.196 434.117 328.196C433.66 328.196 433.235 328.121 432.843 327.972C432.451 327.813 432.106 327.585 431.807 327.286C431.518 326.978 431.289 326.605 431.121 326.166C430.953 325.727 430.869 325.219 430.869 324.64V324.416C430.869 323.847 430.953 323.343 431.121 322.904C431.289 322.465 431.518 322.097 431.807 321.798C432.106 321.49 432.451 321.257 432.843 321.098C433.235 320.939 433.65 320.86 434.089 320.86C434.565 320.86 434.994 320.967 435.377 321.182C435.769 321.387 436.077 321.709 436.301 322.148H436.469V321.056H437.561V326.572C437.561 326.852 437.687 326.992 437.939 326.992H438.289V328H437.547C437.23 328 436.968 327.897 436.763 327.692C436.567 327.487 436.469 327.225 436.469 326.908V326.824ZM434.229 327.16C434.556 327.16 434.854 327.099 435.125 326.978C435.405 326.857 435.643 326.684 435.839 326.46C436.035 326.236 436.189 325.97 436.301 325.662C436.413 325.345 436.469 324.995 436.469 324.612V324.444C436.469 324.071 436.413 323.73 436.301 323.422C436.189 323.105 436.03 322.834 435.825 322.61C435.629 322.386 435.391 322.213 435.111 322.092C434.84 321.961 434.546 321.896 434.229 321.896C433.902 321.896 433.604 321.957 433.333 322.078C433.062 322.199 432.824 322.372 432.619 322.596C432.423 322.811 432.269 323.077 432.157 323.394C432.045 323.702 431.989 324.043 431.989 324.416V324.64C431.989 325.433 432.194 326.054 432.605 326.502C433.025 326.941 433.566 327.16 434.229 327.16ZM439.609 321.056H442.129V321.98H442.297C442.475 321.597 442.727 321.317 443.053 321.14C443.38 320.953 443.753 320.86 444.173 320.86C444.873 320.86 445.438 321.089 445.867 321.546C446.297 322.003 446.525 322.671 446.553 323.548L445.405 323.716C445.405 323.072 445.251 322.61 444.943 322.33C444.635 322.041 444.257 321.896 443.809 321.896C443.52 321.896 443.268 321.952 443.053 322.064C442.848 322.176 442.675 322.33 442.535 322.526C442.395 322.722 442.293 322.951 442.227 323.212C442.162 323.473 442.129 323.753 442.129 324.052V326.992H443.893V328H439.441V326.992H441.037V322.064H439.609V321.056ZM449.371 324.864C449.399 325.555 449.614 326.11 450.015 326.53C450.417 326.95 450.977 327.16 451.695 327.16C452.022 327.16 452.307 327.123 452.549 327.048C452.792 326.973 452.997 326.871 453.165 326.74C453.343 326.609 453.483 326.46 453.585 326.292C453.697 326.115 453.786 325.928 453.851 325.732L454.887 326.012C454.691 326.656 454.327 327.183 453.795 327.594C453.273 327.995 452.563 328.196 451.667 328.196C451.173 328.196 450.715 328.112 450.295 327.944C449.885 327.767 449.53 327.519 449.231 327.202C448.933 326.885 448.699 326.507 448.531 326.068C448.363 325.629 448.279 325.144 448.279 324.612V324.276C448.279 323.791 448.363 323.338 448.531 322.918C448.709 322.498 448.951 322.139 449.259 321.84C449.567 321.532 449.927 321.294 450.337 321.126C450.757 320.949 451.21 320.86 451.695 320.86C452.265 320.86 452.755 320.967 453.165 321.182C453.585 321.387 453.926 321.644 454.187 321.952C454.458 322.26 454.654 322.596 454.775 322.96C454.906 323.324 454.971 323.66 454.971 323.968V324.864H449.371ZM451.695 321.896C451.387 321.896 451.098 321.947 450.827 322.05C450.566 322.143 450.333 322.279 450.127 322.456C449.931 322.633 449.768 322.843 449.637 323.086C449.516 323.319 449.437 323.576 449.399 323.856H453.879C453.861 323.557 453.786 323.287 453.655 323.044C453.534 322.801 453.371 322.596 453.165 322.428C452.969 322.26 452.741 322.129 452.479 322.036C452.227 321.943 451.966 321.896 451.695 321.896ZM466.866 323.968V328H465.69V318.2H469.19C469.694 318.2 470.133 318.275 470.506 318.424C470.879 318.564 471.187 318.755 471.43 318.998C471.682 319.241 471.869 319.525 471.99 319.852C472.121 320.169 472.186 320.505 472.186 320.86V321.28C472.186 321.635 472.121 321.975 471.99 322.302C471.869 322.629 471.682 322.918 471.43 323.17C471.178 323.413 470.865 323.609 470.492 323.758C470.119 323.898 469.685 323.968 469.19 323.968H466.866ZM466.866 322.876H469.05C470.357 322.876 471.01 322.316 471.01 321.196V320.944C471.01 320.449 470.847 320.053 470.52 319.754C470.203 319.446 469.713 319.292 469.05 319.292H466.866V322.876ZM473.898 321.056H476.418V321.98H476.586C476.764 321.597 477.016 321.317 477.342 321.14C477.669 320.953 478.042 320.86 478.462 320.86C479.162 320.86 479.727 321.089 480.156 321.546C480.586 322.003 480.814 322.671 480.842 323.548L479.694 323.716C479.694 323.072 479.54 322.61 479.232 322.33C478.924 322.041 478.546 321.896 478.098 321.896C477.809 321.896 477.557 321.952 477.342 322.064C477.137 322.176 476.964 322.33 476.824 322.526C476.684 322.722 476.582 322.951 476.516 323.212C476.451 323.473 476.418 323.753 476.418 324.052V326.992H478.182V328H473.73V326.992H475.326V322.064H473.898V321.056ZM489.415 324.612C489.415 325.191 489.317 325.704 489.121 326.152C488.934 326.591 488.682 326.964 488.365 327.272C488.047 327.571 487.674 327.799 487.245 327.958C486.825 328.117 486.386 328.196 485.929 328.196C485.462 328.196 485.019 328.117 484.599 327.958C484.179 327.799 483.81 327.571 483.493 327.272C483.175 326.964 482.919 326.591 482.723 326.152C482.536 325.704 482.443 325.191 482.443 324.612V324.444C482.443 323.875 482.536 323.371 482.723 322.932C482.919 322.484 483.175 322.106 483.493 321.798C483.819 321.49 484.193 321.257 484.613 321.098C485.033 320.939 485.471 320.86 485.929 320.86C486.386 320.86 486.825 320.939 487.245 321.098C487.665 321.257 488.033 321.49 488.351 321.798C488.677 322.106 488.934 322.484 489.121 322.932C489.317 323.371 489.415 323.875 489.415 324.444V324.612ZM485.929 327.16C486.265 327.16 486.573 327.104 486.853 326.992C487.142 326.871 487.394 326.698 487.609 326.474C487.823 326.25 487.991 325.984 488.113 325.676C488.234 325.359 488.295 325.004 488.295 324.612V324.444C488.295 324.071 488.234 323.73 488.113 323.422C487.991 323.105 487.823 322.834 487.609 322.61C487.394 322.386 487.142 322.213 486.853 322.092C486.563 321.961 486.255 321.896 485.929 321.896C485.602 321.896 485.294 321.961 485.005 322.092C484.715 322.213 484.463 322.386 484.249 322.61C484.034 322.834 483.866 323.105 483.745 323.422C483.623 323.73 483.563 324.071 483.563 324.444V324.612C483.563 325.004 483.623 325.359 483.745 325.676C483.866 325.984 484.034 326.25 484.249 326.474C484.463 326.698 484.711 326.871 484.991 326.992C485.28 327.104 485.593 327.16 485.929 327.16ZM491.197 321.056H493.381V318.2H494.473V321.056H497.161V322.064H494.473V326.572C494.473 326.852 494.599 326.992 494.851 326.992H496.825V328H494.459C494.141 328 493.88 327.897 493.675 327.692C493.479 327.487 493.381 327.225 493.381 326.908V322.064H491.197V321.056ZM506.559 324.612C506.559 325.191 506.461 325.704 506.265 326.152C506.078 326.591 505.826 326.964 505.509 327.272C505.192 327.571 504.818 327.799 504.389 327.958C503.969 328.117 503.53 328.196 503.073 328.196C502.606 328.196 502.163 328.117 501.743 327.958C501.323 327.799 500.954 327.571 500.637 327.272C500.32 326.964 500.063 326.591 499.867 326.152C499.68 325.704 499.587 325.191 499.587 324.612V324.444C499.587 323.875 499.68 323.371 499.867 322.932C500.063 322.484 500.32 322.106 500.637 321.798C500.964 321.49 501.337 321.257 501.757 321.098C502.177 320.939 502.616 320.86 503.073 320.86C503.53 320.86 503.969 320.939 504.389 321.098C504.809 321.257 505.178 321.49 505.495 321.798C505.822 322.106 506.078 322.484 506.265 322.932C506.461 323.371 506.559 323.875 506.559 324.444V324.612ZM503.073 327.16C503.409 327.16 503.717 327.104 503.997 326.992C504.286 326.871 504.538 326.698 504.753 326.474C504.968 326.25 505.136 325.984 505.257 325.676C505.378 325.359 505.439 325.004 505.439 324.612V324.444C505.439 324.071 505.378 323.73 505.257 323.422C505.136 323.105 504.968 322.834 504.753 322.61C504.538 322.386 504.286 322.213 503.997 322.092C503.708 321.961 503.4 321.896 503.073 321.896C502.746 321.896 502.438 321.961 502.149 322.092C501.86 322.213 501.608 322.386 501.393 322.61C501.178 322.834 501.01 323.105 500.889 323.422C500.768 323.73 500.707 324.071 500.707 324.444V324.612C500.707 325.004 500.768 325.359 500.889 325.676C501.01 325.984 501.178 326.25 501.393 326.474C501.608 326.698 501.855 326.871 502.135 326.992C502.424 327.104 502.737 327.16 503.073 327.16ZM508.341 321.056H510.525V318.2H511.617V321.056H514.305V322.064H511.617V326.572C511.617 326.852 511.743 326.992 511.995 326.992H513.969V328H511.603C511.286 328 511.025 327.897 510.819 327.692C510.623 327.487 510.525 327.225 510.525 326.908V322.064H508.341V321.056ZM522.192 326.74H522.024C521.8 327.188 521.506 327.543 521.142 327.804C520.778 328.065 520.316 328.196 519.756 328.196C519.373 328.196 519.018 328.131 518.692 328C518.374 327.879 518.099 327.692 517.866 327.44C517.642 327.188 517.464 326.875 517.334 326.502C517.212 326.129 517.152 325.695 517.152 325.2V321.056H518.244V325.06C518.244 325.788 518.393 326.32 518.692 326.656C518.99 326.992 519.448 327.16 520.064 327.16C520.726 327.16 521.244 326.936 521.618 326.488C522 326.031 522.192 325.424 522.192 324.668V321.056H523.284V329.708C523.284 330.025 523.181 330.287 522.976 330.492C522.78 330.697 522.523 330.8 522.206 330.8H518.244V329.792H521.814C522.066 329.792 522.192 329.652 522.192 329.372V326.74ZM526.564 330.8H525.472V321.056H526.564V322.148H526.732C526.975 321.728 527.311 321.411 527.74 321.196C528.169 320.972 528.636 320.86 529.14 320.86C529.569 320.86 529.975 320.939 530.358 321.098C530.741 321.257 531.077 321.485 531.366 321.784C531.665 322.083 531.898 322.451 532.066 322.89C532.243 323.329 532.332 323.828 532.332 324.388V324.668C532.332 325.237 532.248 325.741 532.08 326.18C531.912 326.619 531.679 326.987 531.38 327.286C531.091 327.585 530.75 327.813 530.358 327.972C529.966 328.121 529.551 328.196 529.112 328.196C528.888 328.196 528.659 328.168 528.426 328.112C528.193 328.065 527.969 327.991 527.754 327.888C527.549 327.776 527.357 327.645 527.18 327.496C527.003 327.337 526.853 327.151 526.732 326.936H526.564V330.8ZM528.888 327.16C529.224 327.16 529.532 327.104 529.812 326.992C530.092 326.871 530.335 326.703 530.54 326.488C530.755 326.273 530.918 326.012 531.03 325.704C531.151 325.396 531.212 325.051 531.212 324.668V324.388C531.212 324.015 531.151 323.679 531.03 323.38C530.918 323.072 530.755 322.811 530.54 322.596C530.335 322.372 530.087 322.199 529.798 322.078C529.518 321.957 529.215 321.896 528.888 321.896C528.561 321.896 528.258 321.961 527.978 322.092C527.698 322.213 527.451 322.386 527.236 322.61C527.031 322.834 526.867 323.105 526.746 323.422C526.625 323.73 526.564 324.071 526.564 324.444V324.612C526.564 324.995 526.625 325.345 526.746 325.662C526.867 325.97 527.031 326.236 527.236 326.46C527.451 326.684 527.698 326.857 527.978 326.978C528.258 327.099 528.561 327.16 528.888 327.16ZM535.094 324.864C535.122 325.555 535.337 326.11 535.738 326.53C536.139 326.95 536.699 327.16 537.418 327.16C537.745 327.16 538.029 327.123 538.272 327.048C538.515 326.973 538.72 326.871 538.888 326.74C539.065 326.609 539.205 326.46 539.308 326.292C539.42 326.115 539.509 325.928 539.574 325.732L540.61 326.012C540.414 326.656 540.05 327.183 539.518 327.594C538.995 327.995 538.286 328.196 537.39 328.196C536.895 328.196 536.438 328.112 536.018 327.944C535.607 327.767 535.253 327.519 534.954 327.202C534.655 326.885 534.422 326.507 534.254 326.068C534.086 325.629 534.002 325.144 534.002 324.612V324.276C534.002 323.791 534.086 323.338 534.254 322.918C534.431 322.498 534.674 322.139 534.982 321.84C535.29 321.532 535.649 321.294 536.06 321.126C536.48 320.949 536.933 320.86 537.418 320.86C537.987 320.86 538.477 320.967 538.888 321.182C539.308 321.387 539.649 321.644 539.91 321.952C540.181 322.26 540.377 322.596 540.498 322.96C540.629 323.324 540.694 323.66 540.694 323.968V324.864H535.094ZM537.418 321.896C537.11 321.896 536.821 321.947 536.55 322.05C536.289 322.143 536.055 322.279 535.85 322.456C535.654 322.633 535.491 322.843 535.36 323.086C535.239 323.319 535.159 323.576 535.122 323.856H539.602C539.583 323.557 539.509 323.287 539.378 323.044C539.257 322.801 539.093 322.596 538.888 322.428C538.692 322.26 538.463 322.129 538.202 322.036C537.95 321.943 537.689 321.896 537.418 321.896Z" fill="#191A1C"/>
<path d="M238.354 185.354C238.549 185.158 238.549 184.842 238.354 184.646L235.172 181.464C234.976 181.269 234.66 181.269 234.464 181.464C234.269 181.66 234.269 181.976 234.464 182.172L237.293 185L234.464 187.828C234.269 188.024 234.269 188.34 234.464 188.536C234.66 188.731 234.976 188.731 235.172 188.536L238.354 185.354ZM140 185.5H238V184.5H140V185.5Z" fill="black"/>
<path d="M238.354 171.354C238.549 171.158 238.549 170.842 238.354 170.646L235.172 167.464C234.976 167.269 234.66 167.269 234.464 167.464C234.269 167.66 234.269 167.976 234.464 168.172L237.293 171L234.464 173.828C234.269 174.024 234.269 174.34 234.464 174.536C234.66 174.731 234.976 174.731 235.172 174.536L238.354 171.354ZM140 171.5H141.96V170.5H140V171.5ZM147.84 171.5H151.76V170.5H147.84V171.5ZM157.64 171.5H161.56V170.5H157.64V171.5ZM167.44 171.5H171.36V170.5H167.44V171.5ZM177.24 171.5H181.16V170.5H177.24V171.5ZM187.04 171.5H190.96V170.5H187.04V171.5ZM196.84 171.5H200.76V170.5H196.84V171.5ZM206.64 171.5H210.56V170.5H206.64V171.5ZM216.44 171.5H220.36V170.5H216.44V171.5ZM226.24 171.5H230.16V170.5H226.24V171.5ZM236.04 171.5H238V170.5H236.04V171.5Z" fill="black"/>
<path d="M466 185H466.5V184.5H466V185ZM465.646 218.354C465.842 218.549 466.158 218.549 466.354 218.354L469.536 215.172C469.731 214.976 469.731 214.66 469.536 214.464C469.34 214.269 469.024 214.269 468.828 214.464L466 217.293L463.172 214.464C462.976 214.269 462.66 214.269 462.464 214.464C462.269 214.66 462.269 214.976 462.464 215.172L465.646 218.354ZM316 185.5H466V184.5H316V185.5ZM465.5 185V218H466.5V185H465.5Z" fill="black"/>
<path d="M466 185H466.5V185.5H466V185ZM465.646 137.646C465.842 137.451 466.158 137.451 466.354 137.646L469.536 140.828C469.731 141.024 469.731 141.34 469.536 141.536C469.34 141.731 469.024 141.731 468.828 141.536L466 138.707L463.172 141.536C462.976 141.731 462.66 141.731 462.464 141.536C462.269 141.34 462.269 141.024 462.464 140.828L465.646 137.646ZM316 184.5H466V185.5H316V184.5ZM465.5 185V138H466.5V185H465.5Z" fill="black"/>
<path d="M451.646 137.646C451.842 137.451 452.158 137.451 452.354 137.646L455.536 140.828C455.731 141.024 455.731 141.34 455.536 141.536C455.34 141.731 455.024 141.731 454.828 141.536L452 138.707L449.172 141.536C448.976 141.731 448.66 141.731 448.464 141.536C448.269 141.34 448.269 141.024 448.464 140.828L451.646 137.646ZM452 171H452.5V171.5H452V171ZM316 170.5H317.943V171.5H316V170.5ZM323.771 170.5H327.657V171.5H323.771V170.5ZM333.486 170.5H337.371V171.5H333.486V170.5ZM343.2 170.5H347.086V171.5H343.2V170.5ZM352.914 170.5H356.8V171.5H352.914V170.5ZM362.629 170.5H366.514V171.5H362.629V170.5ZM372.343 170.5H376.229V171.5H372.343V170.5ZM382.057 170.5H385.943V171.5H382.057V170.5ZM391.771 170.5H395.657V171.5H391.771V170.5ZM401.486 170.5H405.371V171.5H401.486V170.5ZM411.2 170.5H415.086V171.5H411.2V170.5ZM420.914 170.5H424.8V171.5H420.914V170.5ZM430.629 170.5H434.514V171.5H430.629V170.5ZM440.343 170.5H444.229V171.5H440.343V170.5ZM450.057 170.5H452V171.5H450.057V170.5ZM451.5 171V168.8H452.5V171H451.5ZM451.5 162.2V157.8H452.5V162.2H451.5ZM451.5 151.2V146.8H452.5V151.2H451.5ZM451.5 140.2V138H452.5V140.2H451.5Z" fill="black"/>
<path d="M67 51V50.5H66.5V51H67ZM407.354 51.3536C407.549 51.1583 407.549 50.8417 407.354 50.6464L404.172 47.4645C403.976 47.2692 403.66 47.2692 403.464 47.4645C403.269 47.6597 403.269 47.9763 403.464 48.1716L406.293 51L403.464 53.8284C403.269 54.0237 403.269 54.3403 403.464 54.5355C403.66 54.7308 403.976 54.7308 404.172 54.5355L407.354 51.3536ZM67.5 124V51H66.5V124H67.5ZM67 51.5H407V50.5H67V51.5Z" fill="#9498A0"/>
<path d="M175.964 37.544H177.856L178.362 35.146H179.22L178.714 37.544H180.65V38.336H178.538L177.757 42.043C177.735 42.131 177.743 42.2007 177.779 42.252C177.823 42.3033 177.878 42.329 177.944 42.329C177.996 42.329 178.051 42.3107 178.109 42.274L179.572 41.284L180.012 41.933L178.549 42.923C178.315 43.077 178.073 43.154 177.823 43.154C177.567 43.154 177.347 43.077 177.163 42.923C176.98 42.769 176.888 42.538 176.888 42.23C176.888 42.1787 176.892 42.1273 176.899 42.076C176.907 42.0173 176.918 41.9587 176.932 41.9L177.68 38.336H175.964V37.544ZM182.997 40.536C182.982 40.5947 182.971 40.6607 182.964 40.734C182.956 40.8073 182.953 40.8843 182.953 40.965C182.953 41.3683 183.07 41.702 183.305 41.966C183.539 42.2227 183.913 42.351 184.427 42.351C184.683 42.351 184.911 42.3217 185.109 42.263C185.314 42.2043 185.49 42.1237 185.637 42.021C185.783 41.911 185.908 41.79 186.011 41.658C186.121 41.5187 186.212 41.372 186.286 41.218L186.99 41.614C186.887 41.8267 186.759 42.0283 186.605 42.219C186.451 42.4023 186.267 42.5637 186.055 42.703C185.842 42.8423 185.596 42.9523 185.318 43.033C185.039 43.1137 184.72 43.154 184.361 43.154C184.031 43.154 183.726 43.1027 183.448 43C183.176 42.9047 182.942 42.7653 182.744 42.582C182.546 42.3913 182.392 42.1603 182.282 41.889C182.172 41.6177 182.117 41.3097 182.117 40.965C182.117 40.503 182.19 40.0593 182.337 39.634C182.483 39.2013 182.696 38.82 182.975 38.49C183.253 38.16 183.598 37.896 184.009 37.698C184.419 37.4927 184.885 37.39 185.406 37.39C185.772 37.39 186.091 37.4487 186.363 37.566C186.634 37.676 186.858 37.83 187.034 38.028C187.21 38.2187 187.342 38.4387 187.43 38.688C187.518 38.93 187.562 39.183 187.562 39.447C187.562 39.645 187.54 39.8357 187.496 40.019L187.375 40.536H182.997ZM185.296 38.204C185.039 38.204 184.797 38.2443 184.57 38.325C184.35 38.3983 184.148 38.5047 183.965 38.644C183.781 38.7833 183.624 38.9483 183.492 39.139C183.36 39.3223 183.257 39.524 183.184 39.744H186.682C186.704 39.6267 186.715 39.5167 186.715 39.414C186.715 39.018 186.579 38.7173 186.308 38.512C186.036 38.3067 185.699 38.204 185.296 38.204ZM192.196 38.16C192.049 38.16 191.895 38.1783 191.734 38.215C191.58 38.2517 191.437 38.3067 191.305 38.38C191.18 38.4533 191.078 38.5487 190.997 38.666C190.916 38.776 190.876 38.908 190.876 39.062C190.876 39.2967 190.979 39.4727 191.184 39.59C191.397 39.7073 191.76 39.7843 192.273 39.821C192.801 39.8577 193.208 39.9897 193.494 40.217C193.787 40.4443 193.934 40.778 193.934 41.218C193.934 41.526 193.868 41.801 193.736 42.043C193.611 42.285 193.435 42.4903 193.208 42.659C192.981 42.8203 192.709 42.9413 192.394 43.022C192.086 43.11 191.745 43.154 191.371 43.154C190.997 43.154 190.678 43.1027 190.414 43C190.157 42.9047 189.945 42.7763 189.776 42.615C189.607 42.4463 189.483 42.2593 189.402 42.054C189.329 41.8413 189.292 41.625 189.292 41.405C189.292 41.3683 189.292 41.3317 189.292 41.295C189.292 41.251 189.296 41.2107 189.303 41.174L190.161 41.064C190.154 41.1227 190.15 41.1593 190.15 41.174C190.15 41.1887 190.15 41.2107 190.15 41.24C190.15 41.4013 190.172 41.5517 190.216 41.691C190.267 41.823 190.348 41.9403 190.458 42.043C190.568 42.1383 190.711 42.2153 190.887 42.274C191.063 42.3327 191.279 42.362 191.536 42.362C191.705 42.362 191.877 42.3437 192.053 42.307C192.236 42.263 192.401 42.2007 192.548 42.12C192.695 42.032 192.816 41.9257 192.911 41.801C193.006 41.669 193.054 41.5113 193.054 41.328C193.054 41.042 192.937 40.8513 192.702 40.756C192.475 40.6533 192.134 40.5837 191.679 40.547C191.158 40.5103 190.748 40.3857 190.447 40.173C190.154 39.9603 190.007 39.6267 190.007 39.172C190.007 38.9153 190.062 38.677 190.172 38.457C190.282 38.237 190.436 38.05 190.634 37.896C190.839 37.7347 191.081 37.61 191.36 37.522C191.646 37.434 191.961 37.39 192.306 37.39C192.643 37.39 192.933 37.4377 193.175 37.533C193.424 37.621 193.626 37.7383 193.78 37.885C193.941 38.0317 194.059 38.2003 194.132 38.391C194.213 38.5743 194.253 38.765 194.253 38.963V39.084L193.406 39.205V39.161C193.406 39.1463 193.406 39.1353 193.406 39.128C193.413 39.1133 193.417 39.0987 193.417 39.084C193.417 38.8053 193.311 38.5817 193.098 38.413C192.893 38.2443 192.592 38.16 192.196 38.16ZM196.17 37.544H198.062L198.568 35.146H199.426L198.92 37.544H200.856V38.336H198.744L197.963 42.043C197.941 42.131 197.949 42.2007 197.985 42.252C198.029 42.3033 198.084 42.329 198.15 42.329C198.202 42.329 198.257 42.3107 198.315 42.274L199.778 41.284L200.218 41.933L198.755 42.923C198.521 43.077 198.279 43.154 198.029 43.154C197.773 43.154 197.553 43.077 197.369 42.923C197.186 42.769 197.094 42.538 197.094 42.23C197.094 42.1787 197.098 42.1273 197.105 42.076C197.113 42.0173 197.124 41.9587 197.138 41.9L197.886 38.336H196.17V37.544Z" fill="#9498A0"/>
<path d="M167.209 164.604H167.341L169.893 159.544L170.696 159.951L168.056 165H166.384L165.966 160.402C165.952 160.285 165.889 160.226 165.779 160.226C165.699 160.226 165.633 160.259 165.581 160.325L165.042 161.007L164.426 160.512L164.954 159.83C165.072 159.683 165.207 159.573 165.361 159.5C165.515 159.427 165.673 159.39 165.834 159.39C166.076 159.39 166.293 159.467 166.483 159.621C166.681 159.775 166.795 160.006 166.824 160.314L167.209 164.604ZM174.495 157.916C174.495 157.703 174.568 157.524 174.715 157.377C174.869 157.223 175.052 157.146 175.265 157.146C175.477 157.146 175.657 157.223 175.804 157.377C175.958 157.524 176.035 157.703 176.035 157.916C176.035 158.129 175.958 158.312 175.804 158.466C175.657 158.613 175.477 158.686 175.265 158.686C175.052 158.686 174.869 158.613 174.715 158.466C174.568 158.312 174.495 158.129 174.495 157.916ZM174.319 160.501C174.333 160.428 174.322 160.365 174.286 160.314C174.256 160.255 174.201 160.226 174.121 160.226C174.062 160.226 174.007 160.241 173.956 160.27L172.669 161.15L172.229 160.501L173.527 159.621C173.754 159.467 174 159.39 174.264 159.39C174.513 159.39 174.729 159.463 174.913 159.61C175.096 159.757 175.188 159.984 175.188 160.292C175.188 160.409 175.173 160.527 175.144 160.644L174.33 164.043C174.308 164.131 174.315 164.201 174.352 164.252C174.396 164.303 174.451 164.329 174.517 164.329C174.568 164.329 174.623 164.311 174.682 164.274L175.947 163.416L176.387 164.065L175.122 164.923C174.887 165.077 174.641 165.154 174.385 165.154C174.135 165.154 173.919 165.081 173.736 164.934C173.552 164.787 173.461 164.56 173.461 164.252C173.461 164.135 173.475 164.017 173.505 163.9L174.319 160.501ZM180.031 160.49C180.053 160.402 180.042 160.336 179.998 160.292C179.954 160.241 179.899 160.215 179.833 160.215C179.774 160.215 179.719 160.233 179.668 160.27L178.667 160.952L178.227 160.303L179.206 159.643C179.455 159.474 179.708 159.39 179.965 159.39C180.192 159.39 180.39 159.456 180.559 159.588C180.728 159.713 180.823 159.918 180.845 160.204H180.977C181.19 159.903 181.428 159.694 181.692 159.577C181.956 159.452 182.231 159.39 182.517 159.39C183.045 159.39 183.459 159.544 183.76 159.852C184.061 160.153 184.211 160.552 184.211 161.051C184.211 161.242 184.189 161.436 184.145 161.634L183.21 161.7C183.247 161.517 183.265 161.363 183.265 161.238C183.265 160.886 183.166 160.626 182.968 160.457C182.777 160.288 182.528 160.204 182.22 160.204C182 160.204 181.798 160.248 181.615 160.336C181.439 160.417 181.285 160.53 181.153 160.677C181.021 160.816 180.907 160.981 180.812 161.172C180.724 161.363 180.658 161.561 180.614 161.766L180.097 164.208H181.395V165H177.897V164.208H179.239L180.031 160.49ZM185.567 159.544H187.459L187.965 157.146H188.823L188.317 159.544H190.253V160.336H188.141L187.36 164.043C187.338 164.131 187.346 164.201 187.382 164.252C187.426 164.303 187.481 164.329 187.547 164.329C187.599 164.329 187.654 164.311 187.712 164.274L189.175 163.284L189.615 163.933L188.152 164.923C187.918 165.077 187.676 165.154 187.426 165.154C187.17 165.154 186.95 165.077 186.766 164.923C186.583 164.769 186.491 164.538 186.491 164.23C186.491 164.179 186.495 164.127 186.502 164.076C186.51 164.017 186.521 163.959 186.535 163.9L187.283 160.336H185.567V159.544ZM195.383 164.076H195.251C195.053 164.428 194.8 164.696 194.492 164.879C194.184 165.062 193.81 165.154 193.37 165.154C192.886 165.154 192.493 165.018 192.193 164.747C191.892 164.468 191.742 164.058 191.742 163.515C191.742 163.405 191.745 163.295 191.753 163.185C191.767 163.068 191.793 162.939 191.83 162.8L192.556 159.544H193.414L192.71 162.69C192.658 162.917 192.633 163.13 192.633 163.328C192.633 164.003 192.996 164.34 193.722 164.34C194.228 164.34 194.657 164.164 195.009 163.812C195.368 163.453 195.614 162.976 195.746 162.382L196.384 159.544H197.242L196.241 164.076C196.226 164.135 196.233 164.182 196.263 164.219C196.292 164.256 196.332 164.274 196.384 164.274C196.435 164.274 196.486 164.256 196.538 164.219L197.011 163.878L197.473 164.516L196.923 164.934C196.835 165.007 196.725 165.062 196.593 165.099C196.468 165.136 196.34 165.154 196.208 165.154C196.098 165.154 195.991 165.139 195.889 165.11C195.786 165.081 195.694 165.033 195.614 164.967C195.533 164.901 195.467 164.82 195.416 164.725C195.372 164.622 195.35 164.501 195.35 164.362C195.35 164.325 195.35 164.289 195.35 164.252C195.357 164.215 195.364 164.179 195.372 164.142L195.383 164.076ZM201.92 164.142C201.693 164.531 201.421 164.798 201.106 164.945C200.798 165.084 200.472 165.154 200.127 165.154C199.834 165.154 199.57 165.103 199.335 165C199.1 164.89 198.902 164.74 198.741 164.549C198.58 164.358 198.455 164.131 198.367 163.867C198.279 163.596 198.235 163.299 198.235 162.976C198.235 162.514 198.301 162.067 198.433 161.634C198.565 161.201 198.756 160.82 199.005 160.49C199.262 160.16 199.577 159.896 199.951 159.698C200.325 159.493 200.758 159.39 201.249 159.39C201.623 159.39 201.942 159.478 202.206 159.654C202.47 159.823 202.642 160.072 202.723 160.402H202.855L203.031 159.544H203.889L202.921 164.076C202.906 164.142 202.914 164.193 202.943 164.23C202.972 164.259 203.013 164.274 203.064 164.274C203.115 164.274 203.167 164.256 203.218 164.219L203.614 163.933L204.076 164.582L203.581 164.956C203.5 165.015 203.398 165.062 203.273 165.099C203.156 165.136 203.035 165.154 202.91 165.154C202.8 165.154 202.694 165.139 202.591 165.11C202.488 165.081 202.393 165.037 202.305 164.978C202.224 164.912 202.158 164.831 202.107 164.736C202.056 164.633 202.03 164.509 202.03 164.362C202.03 164.325 202.03 164.289 202.03 164.252C202.037 164.215 202.045 164.179 202.052 164.142H201.92ZM200.391 164.34C200.684 164.34 200.959 164.274 201.216 164.142C201.48 164.003 201.707 163.816 201.898 163.581C202.096 163.346 202.25 163.071 202.36 162.756C202.47 162.433 202.525 162.085 202.525 161.711C202.525 161.256 202.422 160.893 202.217 160.622C202.012 160.343 201.693 160.204 201.26 160.204C200.915 160.204 200.611 160.277 200.347 160.424C200.09 160.571 199.87 160.769 199.687 161.018C199.504 161.26 199.364 161.542 199.269 161.865C199.181 162.188 199.137 162.521 199.137 162.866C199.137 163.35 199.243 163.717 199.456 163.966C199.669 164.215 199.98 164.34 200.391 164.34ZM208.182 158.246C208.204 158.158 208.193 158.092 208.149 158.048C208.113 157.997 208.058 157.971 207.984 157.971C207.933 157.971 207.878 157.989 207.819 158.026L206.532 158.906L206.092 158.257L207.39 157.377C207.508 157.296 207.629 157.238 207.753 157.201C207.878 157.164 208.003 157.146 208.127 157.146C208.369 157.146 208.582 157.219 208.765 157.366C208.956 157.513 209.051 157.74 209.051 158.048C209.051 158.173 209.037 158.29 209.007 158.4L207.676 164.043C207.654 164.131 207.662 164.201 207.698 164.252C207.742 164.303 207.797 164.329 207.863 164.329C207.915 164.329 207.97 164.311 208.028 164.274L209.293 163.416L209.733 164.065L208.468 164.923C208.234 165.077 207.988 165.154 207.731 165.154C207.489 165.154 207.273 165.081 207.082 164.934C206.899 164.787 206.807 164.56 206.807 164.252C206.807 164.127 206.822 164.01 206.851 163.9L208.182 158.246Z" fill="#9498A0"/>
<path d="M161.906 203.2H161.059L162.5 196.369C162.514 196.288 162.507 196.233 162.478 196.204C162.448 196.167 162.404 196.149 162.346 196.149C162.309 196.149 162.276 196.16 162.247 196.182L161.642 196.6L161.202 195.951L161.719 195.599C161.924 195.46 162.148 195.39 162.39 195.39C162.683 195.39 162.914 195.471 163.083 195.632C163.259 195.793 163.347 196.028 163.347 196.336V196.402H163.479C163.699 196.072 163.963 195.823 164.271 195.654C164.586 195.478 164.96 195.39 165.393 195.39C165.693 195.39 165.968 195.445 166.218 195.555C166.474 195.658 166.691 195.804 166.867 195.995C167.05 196.178 167.193 196.402 167.296 196.666C167.398 196.923 167.45 197.201 167.45 197.502C167.45 197.986 167.384 198.448 167.252 198.888C167.127 199.328 166.936 199.717 166.68 200.054C166.423 200.391 166.104 200.659 165.723 200.857C165.341 201.055 164.894 201.154 164.381 201.154C163.97 201.154 163.614 201.062 163.314 200.879C163.02 200.688 162.811 200.45 162.687 200.164H162.555L161.906 203.2ZM164.271 200.34C164.63 200.34 164.949 200.267 165.228 200.12C165.514 199.973 165.752 199.779 165.943 199.537C166.141 199.288 166.287 199.002 166.383 198.679C166.485 198.356 166.537 198.023 166.537 197.678C166.537 197.194 166.408 196.827 166.152 196.578C165.902 196.329 165.569 196.204 165.151 196.204C164.813 196.204 164.505 196.281 164.227 196.435C163.955 196.589 163.721 196.791 163.523 197.04C163.325 197.289 163.171 197.572 163.061 197.887C162.951 198.202 162.896 198.525 162.896 198.855C162.896 199.324 163.017 199.691 163.259 199.955C163.501 200.212 163.838 200.34 164.271 200.34ZM172.502 197.766C172.524 197.663 172.539 197.575 172.546 197.502C172.561 197.421 172.568 197.341 172.568 197.26C172.568 196.879 172.454 196.607 172.227 196.446C172.007 196.285 171.732 196.204 171.402 196.204C170.903 196.204 170.489 196.384 170.159 196.743C169.836 197.095 169.613 197.568 169.488 198.162L168.883 201H168.036L169.708 193.146H170.533L169.873 196.358H170.005C170.188 196.013 170.427 195.768 170.72 195.621C171.013 195.467 171.343 195.39 171.71 195.39C172.194 195.39 172.594 195.544 172.909 195.852C173.232 196.153 173.393 196.578 173.393 197.128C173.393 197.363 173.367 197.597 173.316 197.832L172.832 200.131C172.81 200.241 172.858 200.296 172.975 200.296C173.019 200.296 173.063 200.278 173.107 200.241L173.536 199.933L173.998 200.582L173.492 200.945C173.294 201.084 173.07 201.154 172.821 201.154C172.594 201.154 172.392 201.088 172.216 200.956C172.047 200.824 171.963 200.619 171.963 200.34C171.963 200.259 171.974 200.164 171.996 200.054L172.502 197.766ZM176.619 198.69C176.568 198.917 176.542 199.13 176.542 199.328C176.542 200.003 176.905 200.34 177.631 200.34C178.137 200.34 178.57 200.164 178.929 199.812C179.289 199.453 179.531 198.976 179.655 198.382L180.249 195.544H181.107L179.666 202.342C179.615 202.591 179.494 202.797 179.303 202.958C179.113 203.119 178.893 203.2 178.643 203.2H175.662V202.408H178.5C178.698 202.408 178.819 202.298 178.863 202.078L179.281 200.142H179.149C178.929 200.472 178.665 200.725 178.357 200.901C178.057 201.07 177.697 201.154 177.279 201.154C176.788 201.154 176.396 201.007 176.102 200.714C175.809 200.421 175.662 200.006 175.662 199.471C175.662 199.251 175.688 199.027 175.739 198.8L176.234 196.446C176.249 196.373 176.238 196.318 176.201 196.281C176.172 196.237 176.132 196.215 176.08 196.215C176.036 196.215 175.989 196.233 175.937 196.27L175.376 196.655L174.936 196.006L175.508 195.621C175.736 195.467 175.967 195.39 176.201 195.39C176.443 195.39 176.652 195.471 176.828 195.632C177.004 195.793 177.092 196.017 177.092 196.303C177.092 196.347 177.089 196.391 177.081 196.435C177.081 196.472 177.074 196.523 177.059 196.589L176.619 198.69ZM184.961 196.16C184.814 196.16 184.66 196.178 184.499 196.215C184.345 196.252 184.202 196.307 184.07 196.38C183.945 196.453 183.842 196.549 183.762 196.666C183.681 196.776 183.641 196.908 183.641 197.062C183.641 197.297 183.743 197.473 183.949 197.59C184.161 197.707 184.524 197.784 185.038 197.821C185.566 197.858 185.973 197.99 186.259 198.217C186.552 198.444 186.699 198.778 186.699 199.218C186.699 199.526 186.633 199.801 186.501 200.043C186.376 200.285 186.2 200.49 185.973 200.659C185.745 200.82 185.474 200.941 185.159 201.022C184.851 201.11 184.51 201.154 184.136 201.154C183.762 201.154 183.443 201.103 183.179 201C182.922 200.905 182.709 200.776 182.541 200.615C182.372 200.446 182.247 200.259 182.167 200.054C182.093 199.841 182.057 199.625 182.057 199.405C182.057 199.368 182.057 199.332 182.057 199.295C182.057 199.251 182.06 199.211 182.068 199.174L182.926 199.064C182.918 199.123 182.915 199.159 182.915 199.174C182.915 199.189 182.915 199.211 182.915 199.24C182.915 199.401 182.937 199.552 182.981 199.691C183.032 199.823 183.113 199.94 183.223 200.043C183.333 200.138 183.476 200.215 183.652 200.274C183.828 200.333 184.044 200.362 184.301 200.362C184.469 200.362 184.642 200.344 184.818 200.307C185.001 200.263 185.166 200.201 185.313 200.12C185.459 200.032 185.58 199.926 185.676 199.801C185.771 199.669 185.819 199.511 185.819 199.328C185.819 199.042 185.701 198.851 185.467 198.756C185.239 198.653 184.898 198.584 184.444 198.547C183.923 198.51 183.512 198.386 183.212 198.173C182.918 197.96 182.772 197.627 182.772 197.172C182.772 196.915 182.827 196.677 182.937 196.457C183.047 196.237 183.201 196.05 183.399 195.896C183.604 195.735 183.846 195.61 184.125 195.522C184.411 195.434 184.726 195.39 185.071 195.39C185.408 195.39 185.698 195.438 185.94 195.533C186.189 195.621 186.391 195.738 186.545 195.885C186.706 196.032 186.823 196.2 186.897 196.391C186.977 196.574 187.018 196.765 187.018 196.963V197.084L186.171 197.205V197.161C186.171 197.146 186.171 197.135 186.171 197.128C186.178 197.113 186.182 197.099 186.182 197.084C186.182 196.805 186.075 196.582 185.863 196.413C185.657 196.244 185.357 196.16 184.961 196.16ZM191.333 193.916C191.333 193.703 191.406 193.524 191.553 193.377C191.707 193.223 191.89 193.146 192.103 193.146C192.316 193.146 192.495 193.223 192.642 193.377C192.796 193.524 192.873 193.703 192.873 193.916C192.873 194.129 192.796 194.312 192.642 194.466C192.495 194.613 192.316 194.686 192.103 194.686C191.89 194.686 191.707 194.613 191.553 194.466C191.406 194.312 191.333 194.129 191.333 193.916ZM191.157 196.501C191.172 196.428 191.161 196.365 191.124 196.314C191.095 196.255 191.04 196.226 190.959 196.226C190.9 196.226 190.845 196.241 190.794 196.27L189.507 197.15L189.067 196.501L190.365 195.621C190.592 195.467 190.838 195.39 191.102 195.39C191.351 195.39 191.568 195.463 191.751 195.61C191.934 195.757 192.026 195.984 192.026 196.292C192.026 196.409 192.011 196.527 191.982 196.644L191.168 200.043C191.146 200.131 191.153 200.201 191.19 200.252C191.234 200.303 191.289 200.329 191.355 200.329C191.406 200.329 191.461 200.311 191.52 200.274L192.785 199.416L193.225 200.065L191.96 200.923C191.725 201.077 191.48 201.154 191.223 201.154C190.974 201.154 190.757 201.081 190.574 200.934C190.391 200.787 190.299 200.56 190.299 200.252C190.299 200.135 190.314 200.017 190.343 199.9L191.157 196.501ZM200.345 199.13C200.25 199.409 200.118 199.673 199.949 199.922C199.781 200.164 199.568 200.377 199.311 200.56C199.062 200.743 198.769 200.89 198.431 201C198.101 201.103 197.727 201.154 197.309 201.154C196.965 201.154 196.649 201.103 196.363 201C196.085 200.89 195.846 200.736 195.648 200.538C195.45 200.34 195.296 200.102 195.186 199.823C195.076 199.544 195.021 199.233 195.021 198.888C195.021 198.411 195.102 197.96 195.263 197.535C195.432 197.11 195.667 196.739 195.967 196.424C196.268 196.101 196.631 195.848 197.056 195.665C197.482 195.482 197.955 195.39 198.475 195.39C198.813 195.39 199.117 195.438 199.388 195.533C199.66 195.628 199.891 195.764 200.081 195.94C200.272 196.109 200.419 196.314 200.521 196.556C200.624 196.791 200.675 197.051 200.675 197.337C200.675 197.352 200.675 197.37 200.675 197.392C200.675 197.407 200.672 197.443 200.664 197.502L199.784 197.634C199.792 197.59 199.795 197.557 199.795 197.535C199.795 197.513 199.795 197.487 199.795 197.458C199.795 197.282 199.766 197.121 199.707 196.974C199.656 196.82 199.568 196.688 199.443 196.578C199.326 196.461 199.172 196.369 198.981 196.303C198.798 196.237 198.578 196.204 198.321 196.204C197.977 196.204 197.658 196.274 197.364 196.413C197.078 196.552 196.825 196.743 196.605 196.985C196.393 197.22 196.224 197.495 196.099 197.81C195.982 198.125 195.923 198.455 195.923 198.8C195.923 199.321 196.063 199.709 196.341 199.966C196.62 200.215 197.001 200.34 197.485 200.34C197.779 200.34 198.039 200.3 198.266 200.219C198.494 200.131 198.692 200.021 198.86 199.889C199.029 199.75 199.168 199.592 199.278 199.416C199.388 199.24 199.473 199.057 199.531 198.866L200.345 199.13ZM205.288 200.142C205.06 200.531 204.789 200.798 204.474 200.945C204.166 201.084 203.839 201.154 203.495 201.154C203.201 201.154 202.937 201.103 202.703 201C202.468 200.89 202.27 200.74 202.109 200.549C201.947 200.358 201.823 200.131 201.735 199.867C201.647 199.596 201.603 199.299 201.603 198.976C201.603 198.514 201.669 198.067 201.801 197.634C201.933 197.201 202.123 196.82 202.373 196.49C202.629 196.16 202.945 195.896 203.319 195.698C203.693 195.493 204.125 195.39 204.617 195.39C204.991 195.39 205.31 195.478 205.574 195.654C205.838 195.823 206.01 196.072 206.091 196.402H206.223L206.399 195.544H207.257L206.289 200.076C206.274 200.142 206.281 200.193 206.311 200.23C206.34 200.259 206.38 200.274 206.432 200.274C206.483 200.274 206.534 200.256 206.586 200.219L206.982 199.933L207.444 200.582L206.949 200.956C206.868 201.015 206.765 201.062 206.641 201.099C206.523 201.136 206.402 201.154 206.278 201.154C206.168 201.154 206.061 201.139 205.959 201.11C205.856 201.081 205.761 201.037 205.673 200.978C205.592 200.912 205.526 200.831 205.475 200.736C205.423 200.633 205.398 200.509 205.398 200.362C205.398 200.325 205.398 200.289 205.398 200.252C205.405 200.215 205.412 200.179 205.42 200.142H205.288ZM203.759 200.34C204.052 200.34 204.327 200.274 204.584 200.142C204.848 200.003 205.075 199.816 205.266 199.581C205.464 199.346 205.618 199.071 205.728 198.756C205.838 198.433 205.893 198.085 205.893 197.711C205.893 197.256 205.79 196.893 205.585 196.622C205.379 196.343 205.06 196.204 204.628 196.204C204.283 196.204 203.979 196.277 203.715 196.424C203.458 196.571 203.238 196.769 203.055 197.018C202.871 197.26 202.732 197.542 202.637 197.865C202.549 198.188 202.505 198.521 202.505 198.866C202.505 199.35 202.611 199.717 202.824 199.966C203.036 200.215 203.348 200.34 203.759 200.34ZM211.55 194.246C211.572 194.158 211.561 194.092 211.517 194.048C211.48 193.997 211.425 193.971 211.352 193.971C211.301 193.971 211.246 193.989 211.187 194.026L209.9 194.906L209.46 194.257L210.758 193.377C210.875 193.296 210.996 193.238 211.121 193.201C211.246 193.164 211.37 193.146 211.495 193.146C211.737 193.146 211.95 193.219 212.133 193.366C212.324 193.513 212.419 193.74 212.419 194.048C212.419 194.173 212.404 194.29 212.375 194.4L211.044 200.043C211.022 200.131 211.029 200.201 211.066 200.252C211.11 200.303 211.165 200.329 211.231 200.329C211.282 200.329 211.337 200.311 211.396 200.274L212.661 199.416L213.101 200.065L211.836 200.923C211.601 201.077 211.356 201.154 211.099 201.154C210.857 201.154 210.641 201.081 210.45 200.934C210.267 200.787 210.175 200.56 210.175 200.252C210.175 200.127 210.19 200.01 210.219 199.9L211.55 194.246Z" fill="#9498A0"/>
</svg>
