<svg width="560" height="340" viewBox="0 0 560 340" fill="none" xmlns="http://www.w3.org/2000/svg">
<rect width="560" height="340" fill="white"/>
<rect x="424.5" y="225.5" width="79" height="79" stroke="#191A1C"/>
<circle cx="430.25" cy="231.25" r="3.25" stroke="#191A1C"/>
<circle cx="430.25" cy="238.75" r="3.25" stroke="#191A1C"/>
<circle cx="430.25" cy="246.25" r="3.25" stroke="#191A1C"/>
<circle cx="430.25" cy="253.75" r="3.25" stroke="#191A1C"/>
<circle cx="430.25" cy="261.25" r="3.25" stroke="#191A1C"/>
<circle cx="430.25" cy="268.75" r="3.25" stroke="#191A1C"/>
<circle cx="430.25" cy="276.25" r="3.25" stroke="#191A1C"/>
<circle cx="437.75" cy="231.25" r="3.25" stroke="#191A1C"/>
<circle cx="437.75" cy="238.75" r="3.25" stroke="#191A1C"/>
<circle cx="437.75" cy="246.25" r="3.25" stroke="#191A1C"/>
<circle cx="437.75" cy="253.75" r="3.25" stroke="#191A1C"/>
<circle cx="437.75" cy="261.25" r="3.25" stroke="#191A1C"/>
<circle cx="437.75" cy="268.75" r="3.25" stroke="#191A1C"/>
<circle cx="437.75" cy="276.25" r="3.25" stroke="#191A1C"/>
<circle cx="445.25" cy="231.25" r="3.25" stroke="#191A1C"/>
<circle cx="445.25" cy="238.75" r="3.25" stroke="#191A1C"/>
<circle cx="445.25" cy="246.25" r="3.25" stroke="#191A1C"/>
<circle cx="445.25" cy="253.75" r="3.25" stroke="#191A1C"/>
<circle cx="445.25" cy="261.25" r="3.25" stroke="#191A1C"/>
<circle cx="445.25" cy="268.75" r="3.25" stroke="#191A1C"/>
<circle cx="445.25" cy="276.25" r="3.25" stroke="#191A1C"/>
<circle cx="452.75" cy="231.25" r="3.25" stroke="#191A1C"/>
<circle cx="452.75" cy="238.75" r="3.25" stroke="#191A1C"/>
<circle cx="452.75" cy="246.25" r="3.25" stroke="#191A1C"/>
<circle cx="452.75" cy="253.75" r="3.25" stroke="#191A1C"/>
<circle cx="452.75" cy="261.25" r="3.25" stroke="#191A1C"/>
<circle cx="452.75" cy="268.75" r="3.25" stroke="#191A1C"/>
<circle cx="452.75" cy="276.25" r="3.25" stroke="#191A1C"/>
<circle cx="460.25" cy="231.25" r="3.25" stroke="#191A1C"/>
<circle cx="460.25" cy="238.75" r="3.25" stroke="#191A1C"/>
<circle cx="460.25" cy="246.25" r="3.25" stroke="#191A1C"/>
<circle cx="460.25" cy="253.75" r="3.25" stroke="#191A1C"/>
<circle cx="460.25" cy="261.25" r="3.25" stroke="#191A1C"/>
<circle cx="460.25" cy="268.75" r="3.25" stroke="#191A1C"/>
<circle cx="460.25" cy="276.25" r="3.25" stroke="#191A1C"/>
<circle cx="467.75" cy="231.25" r="3.25" stroke="#191A1C"/>
<circle cx="467.75" cy="238.75" r="3.25" stroke="#191A1C"/>
<circle cx="467.75" cy="246.25" r="3.25" stroke="#191A1C"/>
<circle cx="467.75" cy="253.75" r="3.25" stroke="#191A1C"/>
<circle cx="467.75" cy="261.25" r="3.25" stroke="#191A1C"/>
<circle cx="467.75" cy="268.75" r="3.25" stroke="#191A1C"/>
<circle cx="467.75" cy="276.25" r="3.25" stroke="#191A1C"/>
<circle cx="475.25" cy="231.25" r="3.25" stroke="#191A1C"/>
<circle cx="475.25" cy="238.75" r="3.25" stroke="#191A1C"/>
<circle cx="475.25" cy="246.25" r="3.25" stroke="#191A1C"/>
<circle cx="475.25" cy="253.75" r="3.25" stroke="#191A1C"/>
<circle cx="475.25" cy="261.25" r="3.25" stroke="#191A1C"/>
<circle cx="475.25" cy="268.75" r="3.25" stroke="#191A1C"/>
<circle cx="475.25" cy="276.25" r="3.25" stroke="#191A1C"/>
<circle cx="482.75" cy="231.25" r="3.25" stroke="#191A1C"/>
<circle cx="482.75" cy="238.75" r="3.25" stroke="#191A1C"/>
<circle cx="482.75" cy="246.25" r="3.25" stroke="#191A1C"/>
<circle cx="482.75" cy="253.75" r="3.25" stroke="#191A1C"/>
<circle cx="482.75" cy="261.25" r="3.25" stroke="#191A1C"/>
<circle cx="482.75" cy="268.75" r="3.25" stroke="#191A1C"/>
<circle cx="482.75" cy="276.25" r="3.25" stroke="#191A1C"/>
<circle cx="490.25" cy="231.25" r="3.25" stroke="#191A1C"/>
<circle cx="490.25" cy="238.75" r="3.25" stroke="#191A1C"/>
<circle cx="490.25" cy="246.25" r="3.25" stroke="#191A1C"/>
<circle cx="490.25" cy="253.75" r="3.25" stroke="#191A1C"/>
<circle cx="490.25" cy="261.25" r="3.25" stroke="#191A1C"/>
<circle cx="490.25" cy="268.75" r="3.25" stroke="#191A1C"/>
<circle cx="490.25" cy="276.25" r="3.25" stroke="#191A1C"/>
<circle cx="497.75" cy="231.25" r="3.25" stroke="#191A1C"/>
<circle cx="497.75" cy="238.75" r="3.25" stroke="#191A1C"/>
<circle cx="497.75" cy="246.25" r="3.25" stroke="#191A1C"/>
<circle cx="497.75" cy="253.75" r="3.25" stroke="#191A1C"/>
<circle cx="497.75" cy="261.25" r="3.25" stroke="#191A1C"/>
<circle cx="497.75" cy="268.75" r="3.25" stroke="#191A1C"/>
<circle cx="497.75" cy="276.25" r="3.25" stroke="#191A1C"/>
<circle cx="490.25" cy="291.25" r="4.25" stroke="#191A1C"/>
<rect x="424.5" y="18.5" width="79" height="79" stroke="#191A1C" stroke-dasharray="1 1"/>
<circle cx="430.25" cy="24.25" r="3.25" stroke="#191A1C" stroke-dasharray="1 1"/>
<circle cx="430.25" cy="31.75" r="3.25" stroke="#191A1C" stroke-dasharray="1 1"/>
<circle cx="430.25" cy="39.25" r="3.25" stroke="#191A1C" stroke-dasharray="1 1"/>
<circle cx="430.25" cy="46.75" r="3.25" stroke="#191A1C" stroke-dasharray="1 1"/>
<circle cx="430.25" cy="54.25" r="3.25" stroke="#191A1C" stroke-dasharray="1 1"/>
<circle cx="430.25" cy="61.75" r="3.25" stroke="#191A1C" stroke-dasharray="1 1"/>
<circle cx="430.25" cy="69.25" r="3.25" stroke="#191A1C" stroke-dasharray="1 1"/>
<circle cx="437.75" cy="24.25" r="3.25" stroke="#191A1C" stroke-dasharray="1 1"/>
<circle cx="437.75" cy="31.75" r="3.25" stroke="#191A1C" stroke-dasharray="1 1"/>
<circle cx="437.75" cy="39.25" r="3.25" stroke="#191A1C" stroke-dasharray="1 1"/>
<circle cx="437.75" cy="46.75" r="3.25" stroke="#191A1C" stroke-dasharray="1 1"/>
<circle cx="437.75" cy="54.25" r="3.25" stroke="#191A1C" stroke-dasharray="1 1"/>
<circle cx="437.75" cy="61.75" r="3.25" stroke="#191A1C" stroke-dasharray="1 1"/>
<circle cx="437.75" cy="69.25" r="3.25" stroke="#191A1C" stroke-dasharray="1 1"/>
<circle cx="445.25" cy="24.25" r="3.25" stroke="#191A1C" stroke-dasharray="1 1"/>
<circle cx="445.25" cy="31.75" r="3.25" stroke="#191A1C" stroke-dasharray="1 1"/>
<circle cx="445.25" cy="39.25" r="3.25" stroke="#191A1C" stroke-dasharray="1 1"/>
<circle cx="445.25" cy="46.75" r="3.25" stroke="#191A1C" stroke-dasharray="1 1"/>
<circle cx="445.25" cy="54.25" r="3.25" stroke="#191A1C" stroke-dasharray="1 1"/>
<circle cx="445.25" cy="61.75" r="3.25" stroke="#191A1C" stroke-dasharray="1 1"/>
<circle cx="445.25" cy="69.25" r="3.25" stroke="#191A1C" stroke-dasharray="1 1"/>
<circle cx="452.75" cy="24.25" r="3.25" stroke="#191A1C" stroke-dasharray="1 1"/>
<circle cx="452.75" cy="31.75" r="3.25" stroke="#191A1C" stroke-dasharray="1 1"/>
<circle cx="452.75" cy="39.25" r="3.25" stroke="#191A1C" stroke-dasharray="1 1"/>
<circle cx="452.75" cy="46.75" r="3.25" stroke="#191A1C" stroke-dasharray="1 1"/>
<circle cx="452.75" cy="54.25" r="3.25" stroke="#191A1C" stroke-dasharray="1 1"/>
<circle cx="452.75" cy="61.75" r="3.25" stroke="#191A1C" stroke-dasharray="1 1"/>
<circle cx="452.75" cy="69.25" r="3.25" stroke="#191A1C" stroke-dasharray="1 1"/>
<circle cx="460.25" cy="24.25" r="3.25" stroke="#191A1C" stroke-dasharray="1 1"/>
<circle cx="460.25" cy="31.75" r="3.25" stroke="#191A1C" stroke-dasharray="1 1"/>
<circle cx="460.25" cy="39.25" r="3.25" stroke="#191A1C" stroke-dasharray="1 1"/>
<circle cx="460.25" cy="46.75" r="3.25" stroke="#191A1C" stroke-dasharray="1 1"/>
<circle cx="460.25" cy="54.25" r="3.25" stroke="#191A1C" stroke-dasharray="1 1"/>
<circle cx="460.25" cy="61.75" r="3.25" stroke="#191A1C" stroke-dasharray="1 1"/>
<circle cx="460.25" cy="69.25" r="3.25" stroke="#191A1C" stroke-dasharray="1 1"/>
<circle cx="467.75" cy="24.25" r="3.25" stroke="#191A1C" stroke-dasharray="1 1"/>
<circle cx="467.75" cy="31.75" r="3.25" stroke="#191A1C" stroke-dasharray="1 1"/>
<circle cx="467.75" cy="39.25" r="3.25" stroke="#191A1C" stroke-dasharray="1 1"/>
<circle cx="467.75" cy="46.75" r="3.25" stroke="#191A1C" stroke-dasharray="1 1"/>
<circle cx="467.75" cy="54.25" r="3.25" stroke="#191A1C" stroke-dasharray="1 1"/>
<circle cx="467.75" cy="61.75" r="3.25" stroke="#191A1C" stroke-dasharray="1 1"/>
<circle cx="467.75" cy="69.25" r="3.25" stroke="#191A1C" stroke-dasharray="1 1"/>
<circle cx="475.25" cy="24.25" r="3.25" stroke="#191A1C" stroke-dasharray="1 1"/>
<circle cx="475.25" cy="31.75" r="3.25" stroke="#191A1C" stroke-dasharray="1 1"/>
<circle cx="475.25" cy="39.25" r="3.25" stroke="#191A1C" stroke-dasharray="1 1"/>
<circle cx="475.25" cy="46.75" r="3.25" stroke="#191A1C" stroke-dasharray="1 1"/>
<circle cx="475.25" cy="54.25" r="3.25" stroke="#191A1C" stroke-dasharray="1 1"/>
<circle cx="475.25" cy="61.75" r="3.25" stroke="#191A1C" stroke-dasharray="1 1"/>
<circle cx="475.25" cy="69.25" r="3.25" stroke="#191A1C" stroke-dasharray="1 1"/>
<circle cx="482.75" cy="24.25" r="3.25" stroke="#191A1C" stroke-dasharray="1 1"/>
<circle cx="482.75" cy="31.75" r="3.25" stroke="#191A1C" stroke-dasharray="1 1"/>
<circle cx="482.75" cy="39.25" r="3.25" stroke="#191A1C" stroke-dasharray="1 1"/>
<circle cx="482.75" cy="46.75" r="3.25" stroke="#191A1C" stroke-dasharray="1 1"/>
<circle cx="482.75" cy="54.25" r="3.25" stroke="#191A1C" stroke-dasharray="1 1"/>
<circle cx="482.75" cy="61.75" r="3.25" stroke="#191A1C" stroke-dasharray="1 1"/>
<circle cx="482.75" cy="69.25" r="3.25" stroke="#191A1C" stroke-dasharray="1 1"/>
<circle cx="490.25" cy="24.25" r="3.25" stroke="#191A1C" stroke-dasharray="1 1"/>
<circle cx="490.25" cy="31.75" r="3.25" stroke="#191A1C" stroke-dasharray="1 1"/>
<circle cx="490.25" cy="39.25" r="3.25" stroke="#191A1C" stroke-dasharray="1 1"/>
<circle cx="490.25" cy="46.75" r="3.25" stroke="#191A1C" stroke-dasharray="1 1"/>
<circle cx="490.25" cy="54.25" r="3.25" stroke="#191A1C" stroke-dasharray="1 1"/>
<circle cx="490.25" cy="61.75" r="3.25" stroke="#191A1C" stroke-dasharray="1 1"/>
<circle cx="490.25" cy="69.25" r="3.25" stroke="#191A1C" stroke-dasharray="1 1"/>
<circle cx="497.75" cy="24.25" r="3.25" stroke="#191A1C" stroke-dasharray="1 1"/>
<circle cx="497.75" cy="31.75" r="3.25" stroke="#191A1C" stroke-dasharray="1 1"/>
<circle cx="497.75" cy="39.25" r="3.25" stroke="#191A1C" stroke-dasharray="1 1"/>
<circle cx="497.75" cy="46.75" r="3.25" stroke="#191A1C" stroke-dasharray="1 1"/>
<circle cx="497.75" cy="54.25" r="3.25" stroke="#191A1C" stroke-dasharray="1 1"/>
<circle cx="497.75" cy="61.75" r="3.25" stroke="#191A1C" stroke-dasharray="1 1"/>
<circle cx="497.75" cy="69.25" r="3.25" stroke="#191A1C" stroke-dasharray="1 1"/>
<circle cx="490.25" cy="84.25" r="3.25" stroke="#191A1C" stroke-dasharray="1 1"/>
<rect x="7.5" y="140.5" width="119" height="79" rx="7.5" stroke="#191A1C"/>
<line x1="7" y1="157.5" x2="127" y2="157.5" stroke="#191A1C"/>
<circle cx="18" cy="150" r="2.5" stroke="#191A1C"/>
<circle cx="26" cy="150" r="2.5" stroke="#191A1C"/>
<circle cx="34" cy="150" r="2.5" stroke="#191A1C"/>
<path d="M285.495 167.901L280.22 173.176L275.576 163.79L278.239 157.822C278.912 156.625 280.012 156.623 280.686 157.822L285.495 167.901Z" stroke="#191A1C"/>
<path d="M292.331 161.122C293.321 160.17 294.346 160.495 294.607 161.844L300 193.186L282.121 203.901C281.495 204.247 279.838 204.396 279.838 204.396C279.838 204.396 278.326 204.216 277.75 203.896L260 193.443L292.331 161.122Z" stroke="#191A1C"/>
<path d="M275.582 163.79L260.006 193.444L266.944 150.104C267.199 148.754 267.968 148.624 268.653 149.815L275.582 163.79Z" stroke="#191A1C"/>
<path d="M47.7032 242H45.5612L44.6512 232.704H44.4832L43.5732 242H41.4312L40.4372 232.2H41.5012L42.4392 241.496H42.6072L43.4892 232.2H45.6452L46.5272 241.496H46.6952L47.6332 232.2H48.6972L47.7032 242ZM50.8715 238.864C50.8995 239.555 51.1141 240.11 51.5155 240.53C51.9168 240.95 52.4768 241.16 53.1955 241.16C53.5221 241.16 53.8068 241.123 54.0495 241.048C54.2921 240.973 54.4975 240.871 54.6655 240.74C54.8428 240.609 54.9828 240.46 55.0855 240.292C55.1975 240.115 55.2861 239.928 55.3515 239.732L56.3875 240.012C56.1915 240.656 55.8275 241.183 55.2955 241.594C54.7728 241.995 54.0635 242.196 53.1675 242.196C52.6728 242.196 52.2155 242.112 51.7955 241.944C51.3848 241.767 51.0301 241.519 50.7315 241.202C50.4328 240.885 50.1995 240.507 50.0315 240.068C49.8635 239.629 49.7795 239.144 49.7795 238.612V238.276C49.7795 237.791 49.8635 237.338 50.0315 236.918C50.2088 236.498 50.4515 236.139 50.7595 235.84C51.0675 235.532 51.4268 235.294 51.8375 235.126C52.2575 234.949 52.7101 234.86 53.1955 234.86C53.7648 234.86 54.2548 234.967 54.6655 235.182C55.0855 235.387 55.4261 235.644 55.6875 235.952C55.9581 236.26 56.1541 236.596 56.2755 236.96C56.4061 237.324 56.4715 237.66 56.4715 237.968V238.864H50.8715ZM53.1955 235.896C52.8875 235.896 52.5981 235.947 52.3275 236.05C52.0661 236.143 51.8328 236.279 51.6275 236.456C51.4315 236.633 51.2681 236.843 51.1375 237.086C51.0161 237.319 50.9368 237.576 50.8995 237.856H55.3795C55.3608 237.557 55.2861 237.287 55.1555 237.044C55.0341 236.801 54.8708 236.596 54.6655 236.428C54.4695 236.26 54.2408 236.129 53.9795 236.036C53.7275 235.943 53.4661 235.896 53.1955 235.896ZM59.4857 242H58.3937V232.2H59.4857V236.148H59.6537C59.8964 235.728 60.2324 235.411 60.6617 235.196C61.0911 234.972 61.5577 234.86 62.0617 234.86C62.4911 234.86 62.8971 234.939 63.2797 235.098C63.6624 235.257 63.9984 235.485 64.2877 235.784C64.5864 236.083 64.8197 236.451 64.9877 236.89C65.1651 237.329 65.2537 237.828 65.2537 238.388V238.668C65.2537 239.237 65.1697 239.741 65.0017 240.18C64.8337 240.619 64.6004 240.987 64.3017 241.286C64.0124 241.585 63.6717 241.813 63.2797 241.972C62.8877 242.121 62.4724 242.196 62.0337 242.196C61.8097 242.196 61.5811 242.168 61.3477 242.112C61.1144 242.065 60.8904 241.991 60.6757 241.888C60.4704 241.776 60.2791 241.645 60.1017 241.496C59.9244 241.337 59.7751 241.151 59.6537 240.936H59.4857V242ZM61.8097 241.16C62.1457 241.16 62.4537 241.104 62.7337 240.992C63.0137 240.871 63.2564 240.703 63.4617 240.488C63.6764 240.273 63.8397 240.012 63.9517 239.704C64.0731 239.396 64.1337 239.051 64.1337 238.668V238.388C64.1337 238.015 64.0731 237.679 63.9517 237.38C63.8397 237.072 63.6764 236.811 63.4617 236.596C63.2564 236.372 63.0091 236.199 62.7197 236.078C62.4397 235.957 62.1364 235.896 61.8097 235.896C61.4831 235.896 61.1797 235.961 60.8997 236.092C60.6197 236.213 60.3724 236.386 60.1577 236.61C59.9524 236.834 59.7891 237.105 59.6677 237.422C59.5464 237.73 59.4857 238.071 59.4857 238.444V238.612C59.4857 238.995 59.5464 239.345 59.6677 239.662C59.7891 239.97 59.9524 240.236 60.1577 240.46C60.3724 240.684 60.6197 240.857 60.8997 240.978C61.1797 241.099 61.4831 241.16 61.8097 241.16ZM76.6723 232.2V238.696C76.6723 239.489 76.8543 240.091 77.2183 240.502C77.5916 240.903 78.1376 241.104 78.8563 241.104C79.5749 241.104 80.1163 240.903 80.4803 240.502C80.8536 240.091 81.0403 239.489 81.0403 238.696V232.2H82.2163V238.696C82.2163 239.835 81.9176 240.703 81.3203 241.3C80.7229 241.897 79.9016 242.196 78.8563 242.196C77.8109 242.196 76.9896 241.897 76.3923 241.3C75.7949 240.703 75.4963 239.835 75.4963 238.696V232.2H76.6723ZM84.3205 232.2H90.5365V233.292H88.0165V240.908H90.5365V242H84.3205V240.908H86.8405V233.292H84.3205V232.2Z" fill="#191A1C"/>
<path d="M391.514 111.2H392.774L395.336 120.496H395.504L398.066 111.2H399.326L396.554 121H394.286L391.514 111.2ZM403.082 111.984C403.082 111.713 403.175 111.485 403.362 111.298C403.558 111.102 403.791 111.004 404.062 111.004C404.333 111.004 404.561 111.102 404.748 111.298C404.944 111.485 405.042 111.713 405.042 111.984C405.042 112.255 404.944 112.488 404.748 112.684C404.561 112.871 404.333 112.964 404.062 112.964C403.791 112.964 403.558 112.871 403.362 112.684C403.175 112.488 403.082 112.255 403.082 111.984ZM401.094 119.992H403.53V115.064H401.346V114.056H404.622V119.992H406.89V121H401.094V119.992ZM409.106 114.056H411.626V114.98H411.794C411.972 114.597 412.224 114.317 412.55 114.14C412.877 113.953 413.25 113.86 413.67 113.86C414.37 113.86 414.935 114.089 415.364 114.546C415.794 115.003 416.022 115.671 416.05 116.548L414.902 116.716C414.902 116.072 414.748 115.61 414.44 115.33C414.132 115.041 413.754 114.896 413.306 114.896C413.017 114.896 412.765 114.952 412.55 115.064C412.345 115.176 412.172 115.33 412.032 115.526C411.892 115.722 411.79 115.951 411.724 116.212C411.659 116.473 411.626 116.753 411.626 117.052V119.992H413.39V121H408.938V119.992H410.534V115.064H409.106V114.056ZM417.833 114.056H420.017V111.2H421.109V114.056H423.797V115.064H421.109V119.572C421.109 119.852 421.235 119.992 421.487 119.992H423.461V121H421.095C420.777 121 420.516 120.897 420.311 120.692C420.115 120.487 420.017 120.225 420.017 119.908V115.064H417.833V114.056ZM431.599 114.056H432.691V121H431.599V119.74H431.431C431.207 120.188 430.913 120.543 430.549 120.804C430.185 121.065 429.723 121.196 429.163 121.196C428.78 121.196 428.425 121.131 428.099 121C427.781 120.879 427.506 120.692 427.273 120.44C427.049 120.188 426.871 119.875 426.741 119.502C426.619 119.129 426.559 118.695 426.559 118.2V114.056H427.651V118.06C427.651 118.788 427.8 119.32 428.099 119.656C428.397 119.992 428.855 120.16 429.471 120.16C430.133 120.16 430.651 119.936 431.025 119.488C431.407 119.031 431.599 118.424 431.599 117.668V114.056ZM440.255 119.824H440.087C439.863 120.291 439.55 120.636 439.149 120.86C438.757 121.084 438.342 121.196 437.903 121.196C437.446 121.196 437.021 121.121 436.629 120.972C436.237 120.813 435.892 120.585 435.593 120.286C435.304 119.978 435.075 119.605 434.907 119.166C434.739 118.727 434.655 118.219 434.655 117.64V117.416C434.655 116.847 434.739 116.343 434.907 115.904C435.075 115.465 435.304 115.097 435.593 114.798C435.892 114.49 436.237 114.257 436.629 114.098C437.021 113.939 437.436 113.86 437.875 113.86C438.351 113.86 438.78 113.967 439.163 114.182C439.555 114.387 439.863 114.709 440.087 115.148H440.255V114.056H441.347V119.572C441.347 119.852 441.473 119.992 441.725 119.992H442.075V121H441.333C441.016 121 440.754 120.897 440.549 120.692C440.353 120.487 440.255 120.225 440.255 119.908V119.824ZM438.015 120.16C438.342 120.16 438.64 120.099 438.911 119.978C439.191 119.857 439.429 119.684 439.625 119.46C439.821 119.236 439.975 118.97 440.087 118.662C440.199 118.345 440.255 117.995 440.255 117.612V117.444C440.255 117.071 440.199 116.73 440.087 116.422C439.975 116.105 439.816 115.834 439.611 115.61C439.415 115.386 439.177 115.213 438.897 115.092C438.626 114.961 438.332 114.896 438.015 114.896C437.688 114.896 437.39 114.957 437.119 115.078C436.848 115.199 436.61 115.372 436.405 115.596C436.209 115.811 436.055 116.077 435.943 116.394C435.831 116.702 435.775 117.043 435.775 117.416V117.64C435.775 118.433 435.98 119.054 436.391 119.502C436.811 119.941 437.352 120.16 438.015 120.16ZM443.787 119.992H446.307V112.208H443.871V111.2H447.399V119.992H449.919V121H443.787V119.992ZM462.08 116.968V121H460.904V111.2H464.404C464.908 111.2 465.347 111.275 465.72 111.424C466.093 111.564 466.401 111.755 466.644 111.998C466.896 112.241 467.083 112.525 467.204 112.852C467.335 113.169 467.4 113.505 467.4 113.86V114.28C467.4 114.635 467.335 114.975 467.204 115.302C467.083 115.629 466.896 115.918 466.644 116.17C466.392 116.413 466.079 116.609 465.706 116.758C465.333 116.898 464.899 116.968 464.404 116.968H462.08ZM462.08 115.876H464.264C465.571 115.876 466.224 115.316 466.224 114.196V113.944C466.224 113.449 466.061 113.053 465.734 112.754C465.417 112.446 464.927 112.292 464.264 112.292H462.08V115.876ZM469.112 114.056H471.632V114.98H471.8C471.977 114.597 472.229 114.317 472.556 114.14C472.883 113.953 473.256 113.86 473.676 113.86C474.376 113.86 474.941 114.089 475.37 114.546C475.799 115.003 476.028 115.671 476.056 116.548L474.908 116.716C474.908 116.072 474.754 115.61 474.446 115.33C474.138 115.041 473.76 114.896 473.312 114.896C473.023 114.896 472.771 114.952 472.556 115.064C472.351 115.176 472.178 115.33 472.038 115.526C471.898 115.722 471.795 115.951 471.73 116.212C471.665 116.473 471.632 116.753 471.632 117.052V119.992H473.396V121H468.944V119.992H470.54V115.064H469.112V114.056ZM484.628 117.612C484.628 118.191 484.53 118.704 484.334 119.152C484.148 119.591 483.896 119.964 483.578 120.272C483.261 120.571 482.888 120.799 482.458 120.958C482.038 121.117 481.6 121.196 481.142 121.196C480.676 121.196 480.232 121.117 479.812 120.958C479.392 120.799 479.024 120.571 478.706 120.272C478.389 119.964 478.132 119.591 477.936 119.152C477.75 118.704 477.656 118.191 477.656 117.612V117.444C477.656 116.875 477.75 116.371 477.936 115.932C478.132 115.484 478.389 115.106 478.706 114.798C479.033 114.49 479.406 114.257 479.826 114.098C480.246 113.939 480.685 113.86 481.142 113.86C481.6 113.86 482.038 113.939 482.458 114.098C482.878 114.257 483.247 114.49 483.564 114.798C483.891 115.106 484.148 115.484 484.334 115.932C484.53 116.371 484.628 116.875 484.628 117.444V117.612ZM481.142 120.16C481.478 120.16 481.786 120.104 482.066 119.992C482.356 119.871 482.608 119.698 482.822 119.474C483.037 119.25 483.205 118.984 483.326 118.676C483.448 118.359 483.508 118.004 483.508 117.612V117.444C483.508 117.071 483.448 116.73 483.326 116.422C483.205 116.105 483.037 115.834 482.822 115.61C482.608 115.386 482.356 115.213 482.066 115.092C481.777 114.961 481.469 114.896 481.142 114.896C480.816 114.896 480.508 114.961 480.218 115.092C479.929 115.213 479.677 115.386 479.462 115.61C479.248 115.834 479.08 116.105 478.958 116.422C478.837 116.73 478.776 117.071 478.776 117.444V117.612C478.776 118.004 478.837 118.359 478.958 118.676C479.08 118.984 479.248 119.25 479.462 119.474C479.677 119.698 479.924 119.871 480.204 119.992C480.494 120.104 480.806 120.16 481.142 120.16ZM486.411 114.056H488.595V111.2H489.687V114.056H492.375V115.064H489.687V119.572C489.687 119.852 489.813 119.992 490.065 119.992H492.039V121H489.673C489.355 121 489.094 120.897 488.889 120.692C488.693 120.487 488.595 120.225 488.595 119.908V115.064H486.411V114.056ZM501.773 117.612C501.773 118.191 501.675 118.704 501.479 119.152C501.292 119.591 501.04 119.964 500.723 120.272C500.406 120.571 500.032 120.799 499.603 120.958C499.183 121.117 498.744 121.196 498.287 121.196C497.82 121.196 497.377 121.117 496.957 120.958C496.537 120.799 496.168 120.571 495.851 120.272C495.534 119.964 495.277 119.591 495.081 119.152C494.894 118.704 494.801 118.191 494.801 117.612V117.444C494.801 116.875 494.894 116.371 495.081 115.932C495.277 115.484 495.534 115.106 495.851 114.798C496.178 114.49 496.551 114.257 496.971 114.098C497.391 113.939 497.83 113.86 498.287 113.86C498.744 113.86 499.183 113.939 499.603 114.098C500.023 114.257 500.392 114.49 500.709 114.798C501.036 115.106 501.292 115.484 501.479 115.932C501.675 116.371 501.773 116.875 501.773 117.444V117.612ZM498.287 120.16C498.623 120.16 498.931 120.104 499.211 119.992C499.5 119.871 499.752 119.698 499.967 119.474C500.182 119.25 500.35 118.984 500.471 118.676C500.592 118.359 500.653 118.004 500.653 117.612V117.444C500.653 117.071 500.592 116.73 500.471 116.422C500.35 116.105 500.182 115.834 499.967 115.61C499.752 115.386 499.5 115.213 499.211 115.092C498.922 114.961 498.614 114.896 498.287 114.896C497.96 114.896 497.652 114.961 497.363 115.092C497.074 115.213 496.822 115.386 496.607 115.61C496.392 115.834 496.224 116.105 496.103 116.422C495.982 116.73 495.921 117.071 495.921 117.444V117.612C495.921 118.004 495.982 118.359 496.103 118.676C496.224 118.984 496.392 119.25 496.607 119.474C496.822 119.698 497.069 119.871 497.349 119.992C497.638 120.104 497.951 120.16 498.287 120.16ZM503.555 114.056H505.739V111.2H506.831V114.056H509.519V115.064H506.831V119.572C506.831 119.852 506.957 119.992 507.209 119.992H509.183V121H506.817C506.5 121 506.239 120.897 506.033 120.692C505.837 120.487 505.739 120.225 505.739 119.908V115.064H503.555V114.056ZM517.405 119.74H517.237C517.013 120.188 516.719 120.543 516.355 120.804C515.991 121.065 515.529 121.196 514.969 121.196C514.587 121.196 514.232 121.131 513.905 121C513.588 120.879 513.313 120.692 513.079 120.44C512.855 120.188 512.678 119.875 512.547 119.502C512.426 119.129 512.365 118.695 512.365 118.2V114.056H513.457V118.06C513.457 118.788 513.607 119.32 513.905 119.656C514.204 119.992 514.661 120.16 515.277 120.16C515.94 120.16 516.458 119.936 516.831 119.488C517.214 119.031 517.405 118.424 517.405 117.668V114.056H518.497V122.708C518.497 123.025 518.395 123.287 518.189 123.492C517.993 123.697 517.737 123.8 517.419 123.8H513.457V122.792H517.027C517.279 122.792 517.405 122.652 517.405 122.372V119.74ZM521.778 123.8H520.686V114.056H521.778V115.148H521.946C522.188 114.728 522.524 114.411 522.954 114.196C523.383 113.972 523.85 113.86 524.354 113.86C524.783 113.86 525.189 113.939 525.572 114.098C525.954 114.257 526.29 114.485 526.58 114.784C526.878 115.083 527.112 115.451 527.28 115.89C527.457 116.329 527.546 116.828 527.546 117.388V117.668C527.546 118.237 527.462 118.741 527.294 119.18C527.126 119.619 526.892 119.987 526.594 120.286C526.304 120.585 525.964 120.813 525.572 120.972C525.18 121.121 524.764 121.196 524.326 121.196C524.102 121.196 523.873 121.168 523.64 121.112C523.406 121.065 523.182 120.991 522.968 120.888C522.762 120.776 522.571 120.645 522.394 120.496C522.216 120.337 522.067 120.151 521.946 119.936H521.778V123.8ZM524.102 120.16C524.438 120.16 524.746 120.104 525.026 119.992C525.306 119.871 525.548 119.703 525.754 119.488C525.968 119.273 526.132 119.012 526.244 118.704C526.365 118.396 526.426 118.051 526.426 117.668V117.388C526.426 117.015 526.365 116.679 526.244 116.38C526.132 116.072 525.968 115.811 525.754 115.596C525.548 115.372 525.301 115.199 525.012 115.078C524.732 114.957 524.428 114.896 524.102 114.896C523.775 114.896 523.472 114.961 523.192 115.092C522.912 115.213 522.664 115.386 522.45 115.61C522.244 115.834 522.081 116.105 521.96 116.422C521.838 116.73 521.778 117.071 521.778 117.444V117.612C521.778 117.995 521.838 118.345 521.96 118.662C522.081 118.97 522.244 119.236 522.45 119.46C522.664 119.684 522.912 119.857 523.192 119.978C523.472 120.099 523.775 120.16 524.102 120.16ZM530.308 117.864C530.336 118.555 530.551 119.11 530.952 119.53C531.353 119.95 531.913 120.16 532.632 120.16C532.959 120.16 533.243 120.123 533.486 120.048C533.729 119.973 533.934 119.871 534.102 119.74C534.279 119.609 534.419 119.46 534.522 119.292C534.634 119.115 534.723 118.928 534.788 118.732L535.824 119.012C535.628 119.656 535.264 120.183 534.732 120.594C534.209 120.995 533.5 121.196 532.604 121.196C532.109 121.196 531.652 121.112 531.232 120.944C530.821 120.767 530.467 120.519 530.168 120.202C529.869 119.885 529.636 119.507 529.468 119.068C529.3 118.629 529.216 118.144 529.216 117.612V117.276C529.216 116.791 529.3 116.338 529.468 115.918C529.645 115.498 529.888 115.139 530.196 114.84C530.504 114.532 530.863 114.294 531.274 114.126C531.694 113.949 532.147 113.86 532.632 113.86C533.201 113.86 533.691 113.967 534.102 114.182C534.522 114.387 534.863 114.644 535.124 114.952C535.395 115.26 535.591 115.596 535.712 115.96C535.843 116.324 535.908 116.66 535.908 116.968V117.864H530.308ZM532.632 114.896C532.324 114.896 532.035 114.947 531.764 115.05C531.503 115.143 531.269 115.279 531.064 115.456C530.868 115.633 530.705 115.843 530.574 116.086C530.453 116.319 530.373 116.576 530.336 116.856H534.816C534.797 116.557 534.723 116.287 534.592 116.044C534.471 115.801 534.307 115.596 534.102 115.428C533.906 115.26 533.677 115.129 533.416 115.036C533.164 114.943 532.903 114.896 532.632 114.896Z" fill="#191A1C"/>
<path d="M247.541 217.2H253.561V218.292H248.717V221.54H253.477V222.632H248.717V227H247.541V217.2ZM258.157 217.984C258.157 217.713 258.251 217.485 258.437 217.298C258.633 217.102 258.867 217.004 259.137 217.004C259.408 217.004 259.637 217.102 259.823 217.298C260.019 217.485 260.117 217.713 260.117 217.984C260.117 218.255 260.019 218.488 259.823 218.684C259.637 218.871 259.408 218.964 259.137 218.964C258.867 218.964 258.633 218.871 258.437 218.684C258.251 218.488 258.157 218.255 258.157 217.984ZM256.169 225.992H258.605V221.064H256.421V220.056H259.697V225.992H261.965V227H256.169V225.992ZM264.181 220.056H266.701V220.98H266.869C267.047 220.597 267.299 220.317 267.625 220.14C267.952 219.953 268.325 219.86 268.745 219.86C269.445 219.86 270.01 220.089 270.439 220.546C270.869 221.003 271.097 221.671 271.125 222.548L269.977 222.716C269.977 222.072 269.823 221.61 269.515 221.33C269.207 221.041 268.829 220.896 268.381 220.896C268.092 220.896 267.84 220.952 267.625 221.064C267.42 221.176 267.247 221.33 267.107 221.526C266.967 221.722 266.865 221.951 266.799 222.212C266.734 222.473 266.701 222.753 266.701 223.052V225.992H268.465V227H264.013V225.992H265.609V221.064H264.181V220.056ZM273.944 223.864C273.972 224.555 274.186 225.11 274.588 225.53C274.989 225.95 275.549 226.16 276.268 226.16C276.594 226.16 276.879 226.123 277.122 226.048C277.364 225.973 277.57 225.871 277.738 225.74C277.915 225.609 278.055 225.46 278.158 225.292C278.27 225.115 278.358 224.928 278.424 224.732L279.46 225.012C279.264 225.656 278.9 226.183 278.368 226.594C277.845 226.995 277.136 227.196 276.24 227.196C275.745 227.196 275.288 227.112 274.868 226.944C274.457 226.767 274.102 226.519 273.804 226.202C273.505 225.885 273.272 225.507 273.104 225.068C272.936 224.629 272.852 224.144 272.852 223.612V223.276C272.852 222.791 272.936 222.338 273.104 221.918C273.281 221.498 273.524 221.139 273.832 220.84C274.14 220.532 274.499 220.294 274.91 220.126C275.33 219.949 275.782 219.86 276.268 219.86C276.837 219.86 277.327 219.967 277.738 220.182C278.158 220.387 278.498 220.644 278.76 220.952C279.03 221.26 279.226 221.596 279.348 221.96C279.478 222.324 279.544 222.66 279.544 222.968V223.864H273.944ZM276.268 220.896C275.96 220.896 275.67 220.947 275.4 221.05C275.138 221.143 274.905 221.279 274.7 221.456C274.504 221.633 274.34 221.843 274.21 222.086C274.088 222.319 274.009 222.576 273.972 222.856H278.452C278.433 222.557 278.358 222.287 278.228 222.044C278.106 221.801 277.943 221.596 277.738 221.428C277.542 221.26 277.313 221.129 277.052 221.036C276.8 220.943 276.538 220.896 276.268 220.896ZM282.558 227H281.466V217.2H282.558V221.148H282.726C282.969 220.728 283.305 220.411 283.734 220.196C284.163 219.972 284.63 219.86 285.134 219.86C285.563 219.86 285.969 219.939 286.352 220.098C286.735 220.257 287.071 220.485 287.36 220.784C287.659 221.083 287.892 221.451 288.06 221.89C288.237 222.329 288.326 222.828 288.326 223.388V223.668C288.326 224.237 288.242 224.741 288.074 225.18C287.906 225.619 287.673 225.987 287.374 226.286C287.085 226.585 286.744 226.813 286.352 226.972C285.96 227.121 285.545 227.196 285.106 227.196C284.882 227.196 284.653 227.168 284.42 227.112C284.187 227.065 283.963 226.991 283.748 226.888C283.543 226.776 283.351 226.645 283.174 226.496C282.997 226.337 282.847 226.151 282.726 225.936H282.558V227ZM284.882 226.16C285.218 226.16 285.526 226.104 285.806 225.992C286.086 225.871 286.329 225.703 286.534 225.488C286.749 225.273 286.912 225.012 287.024 224.704C287.145 224.396 287.206 224.051 287.206 223.668V223.388C287.206 223.015 287.145 222.679 287.024 222.38C286.912 222.072 286.749 221.811 286.534 221.596C286.329 221.372 286.081 221.199 285.792 221.078C285.512 220.957 285.209 220.896 284.882 220.896C284.555 220.896 284.252 220.961 283.972 221.092C283.692 221.213 283.445 221.386 283.23 221.61C283.025 221.834 282.861 222.105 282.74 222.422C282.619 222.73 282.558 223.071 282.558 223.444V223.612C282.558 223.995 282.619 224.345 282.74 224.662C282.861 224.97 283.025 225.236 283.23 225.46C283.445 225.684 283.692 225.857 283.972 225.978C284.252 226.099 284.555 226.16 284.882 226.16ZM295.33 225.824H295.162C294.938 226.291 294.626 226.636 294.224 226.86C293.832 227.084 293.417 227.196 292.978 227.196C292.521 227.196 292.096 227.121 291.704 226.972C291.312 226.813 290.967 226.585 290.668 226.286C290.379 225.978 290.15 225.605 289.982 225.166C289.814 224.727 289.73 224.219 289.73 223.64V223.416C289.73 222.847 289.814 222.343 289.982 221.904C290.15 221.465 290.379 221.097 290.668 220.798C290.967 220.49 291.312 220.257 291.704 220.098C292.096 219.939 292.512 219.86 292.95 219.86C293.426 219.86 293.856 219.967 294.238 220.182C294.63 220.387 294.938 220.709 295.162 221.148H295.33V220.056H296.422V225.572C296.422 225.852 296.548 225.992 296.8 225.992H297.15V227H296.408C296.091 227 295.83 226.897 295.624 226.692C295.428 226.487 295.33 226.225 295.33 225.908V225.824ZM293.09 226.16C293.417 226.16 293.716 226.099 293.986 225.978C294.266 225.857 294.504 225.684 294.7 225.46C294.896 225.236 295.05 224.97 295.162 224.662C295.274 224.345 295.33 223.995 295.33 223.612V223.444C295.33 223.071 295.274 222.73 295.162 222.422C295.05 222.105 294.892 221.834 294.686 221.61C294.49 221.386 294.252 221.213 293.972 221.092C293.702 220.961 293.408 220.896 293.09 220.896C292.764 220.896 292.465 220.957 292.194 221.078C291.924 221.199 291.686 221.372 291.48 221.596C291.284 221.811 291.13 222.077 291.018 222.394C290.906 222.702 290.85 223.043 290.85 223.416V223.64C290.85 224.433 291.056 225.054 291.466 225.502C291.886 225.941 292.428 226.16 293.09 226.16ZM300.305 221.848C300.305 222.184 300.445 222.441 300.725 222.618C301.014 222.795 301.537 222.912 302.293 222.968C303.105 223.033 303.721 223.229 304.141 223.556C304.57 223.873 304.785 224.34 304.785 224.956V225.04C304.785 225.376 304.715 225.679 304.575 225.95C304.444 226.211 304.257 226.435 304.015 226.622C303.781 226.809 303.492 226.949 303.147 227.042C302.811 227.145 302.442 227.196 302.041 227.196C301.499 227.196 301.033 227.126 300.641 226.986C300.258 226.837 299.936 226.645 299.675 226.412C299.423 226.169 299.231 225.899 299.101 225.6C298.97 225.292 298.895 224.984 298.877 224.676L299.913 224.424C299.959 224.956 300.165 225.385 300.529 225.712C300.893 226.029 301.378 226.188 301.985 226.188C302.498 226.188 302.909 226.09 303.217 225.894C303.534 225.689 303.693 225.404 303.693 225.04C303.693 224.648 303.539 224.368 303.231 224.2C302.923 224.032 302.423 223.925 301.733 223.878C300.93 223.822 300.314 223.635 299.885 223.318C299.455 223.001 299.241 222.539 299.241 221.932V221.848C299.241 221.521 299.311 221.237 299.451 220.994C299.591 220.742 299.777 220.532 300.011 220.364C300.253 220.196 300.524 220.07 300.823 219.986C301.121 219.902 301.434 219.86 301.761 219.86C302.218 219.86 302.619 219.925 302.965 220.056C303.31 220.177 303.599 220.341 303.833 220.546C304.066 220.742 304.243 220.971 304.365 221.232C304.495 221.493 304.579 221.755 304.617 222.016L303.581 222.268C303.534 221.82 303.352 221.47 303.035 221.218C302.727 220.966 302.321 220.84 301.817 220.84C301.621 220.84 301.429 220.863 301.243 220.91C301.065 220.947 300.907 221.008 300.767 221.092C300.627 221.176 300.515 221.283 300.431 221.414C300.347 221.535 300.305 221.68 300.305 221.848ZM308.233 223.864C308.261 224.555 308.475 225.11 308.877 225.53C309.278 225.95 309.838 226.16 310.557 226.16C310.883 226.16 311.168 226.123 311.411 226.048C311.653 225.973 311.859 225.871 312.027 225.74C312.204 225.609 312.344 225.46 312.447 225.292C312.559 225.115 312.647 224.928 312.713 224.732L313.749 225.012C313.553 225.656 313.189 226.183 312.657 226.594C312.134 226.995 311.425 227.196 310.529 227.196C310.034 227.196 309.577 227.112 309.157 226.944C308.746 226.767 308.391 226.519 308.093 226.202C307.794 225.885 307.561 225.507 307.393 225.068C307.225 224.629 307.141 224.144 307.141 223.612V223.276C307.141 222.791 307.225 222.338 307.393 221.918C307.57 221.498 307.813 221.139 308.121 220.84C308.429 220.532 308.788 220.294 309.199 220.126C309.619 219.949 310.071 219.86 310.557 219.86C311.126 219.86 311.616 219.967 312.027 220.182C312.447 220.387 312.787 220.644 313.049 220.952C313.319 221.26 313.515 221.596 313.637 221.96C313.767 222.324 313.833 222.66 313.833 222.968V223.864H308.233ZM310.557 220.896C310.249 220.896 309.959 220.947 309.689 221.05C309.427 221.143 309.194 221.279 308.989 221.456C308.793 221.633 308.629 221.843 308.499 222.086C308.377 222.319 308.298 222.576 308.261 222.856H312.741C312.722 222.557 312.647 222.287 312.517 222.044C312.395 221.801 312.232 221.596 312.027 221.428C311.831 221.26 311.602 221.129 311.341 221.036C311.089 220.943 310.827 220.896 310.557 220.896Z" fill="#191A1C"/>
<path d="M388.372 318.2H389.548V322.54H393.72V318.2H394.896V328H393.72V323.632H389.548V328H388.372V318.2ZM402.18 326.824H402.012C401.788 327.291 401.475 327.636 401.074 327.86C400.682 328.084 400.267 328.196 399.828 328.196C399.371 328.196 398.946 328.121 398.554 327.972C398.162 327.813 397.817 327.585 397.518 327.286C397.229 326.978 397 326.605 396.832 326.166C396.664 325.727 396.58 325.219 396.58 324.64V324.416C396.58 323.847 396.664 323.343 396.832 322.904C397 322.465 397.229 322.097 397.518 321.798C397.817 321.49 398.162 321.257 398.554 321.098C398.946 320.939 399.361 320.86 399.8 320.86C400.276 320.86 400.705 320.967 401.088 321.182C401.48 321.387 401.788 321.709 402.012 322.148H402.18V321.056H403.272V326.572C403.272 326.852 403.398 326.992 403.65 326.992H404V328H403.258C402.941 328 402.679 327.897 402.474 327.692C402.278 327.487 402.18 327.225 402.18 326.908V326.824ZM399.94 327.16C400.267 327.16 400.565 327.099 400.836 326.978C401.116 326.857 401.354 326.684 401.55 326.46C401.746 326.236 401.9 325.97 402.012 325.662C402.124 325.345 402.18 324.995 402.18 324.612V324.444C402.18 324.071 402.124 323.73 402.012 323.422C401.9 323.105 401.741 322.834 401.536 322.61C401.34 322.386 401.102 322.213 400.822 322.092C400.551 321.961 400.257 321.896 399.94 321.896C399.613 321.896 399.315 321.957 399.044 322.078C398.773 322.199 398.535 322.372 398.33 322.596C398.134 322.811 397.98 323.077 397.868 323.394C397.756 323.702 397.7 324.043 397.7 324.416V324.64C397.7 325.433 397.905 326.054 398.316 326.502C398.736 326.941 399.277 327.16 399.94 327.16ZM405.32 321.056H407.84V321.98H408.008C408.185 321.597 408.437 321.317 408.764 321.14C409.091 320.953 409.464 320.86 409.884 320.86C410.584 320.86 411.149 321.089 411.578 321.546C412.007 322.003 412.236 322.671 412.264 323.548L411.116 323.716C411.116 323.072 410.962 322.61 410.654 322.33C410.346 322.041 409.968 321.896 409.52 321.896C409.231 321.896 408.979 321.952 408.764 322.064C408.559 322.176 408.386 322.33 408.246 322.526C408.106 322.722 408.003 322.951 407.938 323.212C407.873 323.473 407.84 323.753 407.84 324.052V326.992H409.604V328H405.152V326.992H406.748V322.064H405.32V321.056ZM419.66 326.936H419.492C419.38 327.151 419.236 327.337 419.058 327.496C418.89 327.655 418.704 327.785 418.498 327.888C418.302 327.991 418.092 328.065 417.868 328.112C417.644 328.168 417.43 328.196 417.224 328.196C416.758 328.196 416.324 328.117 415.922 327.958C415.521 327.799 415.166 327.571 414.858 327.272C414.56 326.973 414.322 326.605 414.144 326.166C413.976 325.718 413.892 325.209 413.892 324.64V324.416C413.892 323.856 413.981 323.357 414.158 322.918C414.336 322.47 414.574 322.097 414.872 321.798C415.171 321.49 415.521 321.257 415.922 321.098C416.324 320.939 416.748 320.86 417.196 320.86C417.672 320.86 418.116 320.967 418.526 321.182C418.946 321.387 419.268 321.709 419.492 322.148H419.66V318.2H420.752V328H419.66V326.936ZM417.336 327.16C417.663 327.16 417.966 327.099 418.246 326.978C418.526 326.857 418.769 326.684 418.974 326.46C419.189 326.236 419.357 325.97 419.478 325.662C419.6 325.345 419.66 324.995 419.66 324.612V324.444C419.66 324.071 419.6 323.73 419.478 323.422C419.357 323.105 419.189 322.834 418.974 322.61C418.769 322.386 418.522 322.213 418.232 322.092C417.952 321.961 417.654 321.896 417.336 321.896C417.01 321.896 416.702 321.957 416.412 322.078C416.132 322.199 415.885 322.372 415.67 322.596C415.465 322.82 415.302 323.086 415.18 323.394C415.068 323.702 415.012 324.043 415.012 324.416V324.64C415.012 325.032 415.068 325.382 415.18 325.69C415.302 325.998 415.465 326.264 415.67 326.488C415.885 326.703 416.132 326.871 416.412 326.992C416.692 327.104 417 327.16 417.336 327.16ZM428.863 328H426.847L426.007 321.56H425.839L424.999 328H422.983L421.891 321.056H423.011L423.935 327.496H424.103L424.915 321.056H426.931L427.743 327.496H427.911L428.835 321.056H429.955L428.863 328ZM436.469 326.824H436.301C436.077 327.291 435.764 327.636 435.363 327.86C434.971 328.084 434.556 328.196 434.117 328.196C433.66 328.196 433.235 328.121 432.843 327.972C432.451 327.813 432.106 327.585 431.807 327.286C431.518 326.978 431.289 326.605 431.121 326.166C430.953 325.727 430.869 325.219 430.869 324.64V324.416C430.869 323.847 430.953 323.343 431.121 322.904C431.289 322.465 431.518 322.097 431.807 321.798C432.106 321.49 432.451 321.257 432.843 321.098C433.235 320.939 433.65 320.86 434.089 320.86C434.565 320.86 434.994 320.967 435.377 321.182C435.769 321.387 436.077 321.709 436.301 322.148H436.469V321.056H437.561V326.572C437.561 326.852 437.687 326.992 437.939 326.992H438.289V328H437.547C437.23 328 436.968 327.897 436.763 327.692C436.567 327.487 436.469 327.225 436.469 326.908V326.824ZM434.229 327.16C434.556 327.16 434.854 327.099 435.125 326.978C435.405 326.857 435.643 326.684 435.839 326.46C436.035 326.236 436.189 325.97 436.301 325.662C436.413 325.345 436.469 324.995 436.469 324.612V324.444C436.469 324.071 436.413 323.73 436.301 323.422C436.189 323.105 436.03 322.834 435.825 322.61C435.629 322.386 435.391 322.213 435.111 322.092C434.84 321.961 434.546 321.896 434.229 321.896C433.902 321.896 433.604 321.957 433.333 322.078C433.062 322.199 432.824 322.372 432.619 322.596C432.423 322.811 432.269 323.077 432.157 323.394C432.045 323.702 431.989 324.043 431.989 324.416V324.64C431.989 325.433 432.194 326.054 432.605 326.502C433.025 326.941 433.566 327.16 434.229 327.16ZM439.609 321.056H442.129V321.98H442.297C442.475 321.597 442.727 321.317 443.053 321.14C443.38 320.953 443.753 320.86 444.173 320.86C444.873 320.86 445.438 321.089 445.867 321.546C446.297 322.003 446.525 322.671 446.553 323.548L445.405 323.716C445.405 323.072 445.251 322.61 444.943 322.33C444.635 322.041 444.257 321.896 443.809 321.896C443.52 321.896 443.268 321.952 443.053 322.064C442.848 322.176 442.675 322.33 442.535 322.526C442.395 322.722 442.293 322.951 442.227 323.212C442.162 323.473 442.129 323.753 442.129 324.052V326.992H443.893V328H439.441V326.992H441.037V322.064H439.609V321.056ZM449.371 324.864C449.399 325.555 449.614 326.11 450.015 326.53C450.417 326.95 450.977 327.16 451.695 327.16C452.022 327.16 452.307 327.123 452.549 327.048C452.792 326.973 452.997 326.871 453.165 326.74C453.343 326.609 453.483 326.46 453.585 326.292C453.697 326.115 453.786 325.928 453.851 325.732L454.887 326.012C454.691 326.656 454.327 327.183 453.795 327.594C453.273 327.995 452.563 328.196 451.667 328.196C451.173 328.196 450.715 328.112 450.295 327.944C449.885 327.767 449.53 327.519 449.231 327.202C448.933 326.885 448.699 326.507 448.531 326.068C448.363 325.629 448.279 325.144 448.279 324.612V324.276C448.279 323.791 448.363 323.338 448.531 322.918C448.709 322.498 448.951 322.139 449.259 321.84C449.567 321.532 449.927 321.294 450.337 321.126C450.757 320.949 451.21 320.86 451.695 320.86C452.265 320.86 452.755 320.967 453.165 321.182C453.585 321.387 453.926 321.644 454.187 321.952C454.458 322.26 454.654 322.596 454.775 322.96C454.906 323.324 454.971 323.66 454.971 323.968V324.864H449.371ZM451.695 321.896C451.387 321.896 451.098 321.947 450.827 322.05C450.566 322.143 450.333 322.279 450.127 322.456C449.931 322.633 449.768 322.843 449.637 323.086C449.516 323.319 449.437 323.576 449.399 323.856H453.879C453.861 323.557 453.786 323.287 453.655 323.044C453.534 322.801 453.371 322.596 453.165 322.428C452.969 322.26 452.741 322.129 452.479 322.036C452.227 321.943 451.966 321.896 451.695 321.896ZM466.866 323.968V328H465.69V318.2H469.19C469.694 318.2 470.133 318.275 470.506 318.424C470.879 318.564 471.187 318.755 471.43 318.998C471.682 319.241 471.869 319.525 471.99 319.852C472.121 320.169 472.186 320.505 472.186 320.86V321.28C472.186 321.635 472.121 321.975 471.99 322.302C471.869 322.629 471.682 322.918 471.43 323.17C471.178 323.413 470.865 323.609 470.492 323.758C470.119 323.898 469.685 323.968 469.19 323.968H466.866ZM466.866 322.876H469.05C470.357 322.876 471.01 322.316 471.01 321.196V320.944C471.01 320.449 470.847 320.053 470.52 319.754C470.203 319.446 469.713 319.292 469.05 319.292H466.866V322.876ZM473.898 321.056H476.418V321.98H476.586C476.764 321.597 477.016 321.317 477.342 321.14C477.669 320.953 478.042 320.86 478.462 320.86C479.162 320.86 479.727 321.089 480.156 321.546C480.586 322.003 480.814 322.671 480.842 323.548L479.694 323.716C479.694 323.072 479.54 322.61 479.232 322.33C478.924 322.041 478.546 321.896 478.098 321.896C477.809 321.896 477.557 321.952 477.342 322.064C477.137 322.176 476.964 322.33 476.824 322.526C476.684 322.722 476.582 322.951 476.516 323.212C476.451 323.473 476.418 323.753 476.418 324.052V326.992H478.182V328H473.73V326.992H475.326V322.064H473.898V321.056ZM489.415 324.612C489.415 325.191 489.317 325.704 489.121 326.152C488.934 326.591 488.682 326.964 488.365 327.272C488.047 327.571 487.674 327.799 487.245 327.958C486.825 328.117 486.386 328.196 485.929 328.196C485.462 328.196 485.019 328.117 484.599 327.958C484.179 327.799 483.81 327.571 483.493 327.272C483.175 326.964 482.919 326.591 482.723 326.152C482.536 325.704 482.443 325.191 482.443 324.612V324.444C482.443 323.875 482.536 323.371 482.723 322.932C482.919 322.484 483.175 322.106 483.493 321.798C483.819 321.49 484.193 321.257 484.613 321.098C485.033 320.939 485.471 320.86 485.929 320.86C486.386 320.86 486.825 320.939 487.245 321.098C487.665 321.257 488.033 321.49 488.351 321.798C488.677 322.106 488.934 322.484 489.121 322.932C489.317 323.371 489.415 323.875 489.415 324.444V324.612ZM485.929 327.16C486.265 327.16 486.573 327.104 486.853 326.992C487.142 326.871 487.394 326.698 487.609 326.474C487.823 326.25 487.991 325.984 488.113 325.676C488.234 325.359 488.295 325.004 488.295 324.612V324.444C488.295 324.071 488.234 323.73 488.113 323.422C487.991 323.105 487.823 322.834 487.609 322.61C487.394 322.386 487.142 322.213 486.853 322.092C486.563 321.961 486.255 321.896 485.929 321.896C485.602 321.896 485.294 321.961 485.005 322.092C484.715 322.213 484.463 322.386 484.249 322.61C484.034 322.834 483.866 323.105 483.745 323.422C483.623 323.73 483.563 324.071 483.563 324.444V324.612C483.563 325.004 483.623 325.359 483.745 325.676C483.866 325.984 484.034 326.25 484.249 326.474C484.463 326.698 484.711 326.871 484.991 326.992C485.28 327.104 485.593 327.16 485.929 327.16ZM491.197 321.056H493.381V318.2H494.473V321.056H497.161V322.064H494.473V326.572C494.473 326.852 494.599 326.992 494.851 326.992H496.825V328H494.459C494.141 328 493.88 327.897 493.675 327.692C493.479 327.487 493.381 327.225 493.381 326.908V322.064H491.197V321.056ZM506.559 324.612C506.559 325.191 506.461 325.704 506.265 326.152C506.078 326.591 505.826 326.964 505.509 327.272C505.192 327.571 504.818 327.799 504.389 327.958C503.969 328.117 503.53 328.196 503.073 328.196C502.606 328.196 502.163 328.117 501.743 327.958C501.323 327.799 500.954 327.571 500.637 327.272C500.32 326.964 500.063 326.591 499.867 326.152C499.68 325.704 499.587 325.191 499.587 324.612V324.444C499.587 323.875 499.68 323.371 499.867 322.932C500.063 322.484 500.32 322.106 500.637 321.798C500.964 321.49 501.337 321.257 501.757 321.098C502.177 320.939 502.616 320.86 503.073 320.86C503.53 320.86 503.969 320.939 504.389 321.098C504.809 321.257 505.178 321.49 505.495 321.798C505.822 322.106 506.078 322.484 506.265 322.932C506.461 323.371 506.559 323.875 506.559 324.444V324.612ZM503.073 327.16C503.409 327.16 503.717 327.104 503.997 326.992C504.286 326.871 504.538 326.698 504.753 326.474C504.968 326.25 505.136 325.984 505.257 325.676C505.378 325.359 505.439 325.004 505.439 324.612V324.444C505.439 324.071 505.378 323.73 505.257 323.422C505.136 323.105 504.968 322.834 504.753 322.61C504.538 322.386 504.286 322.213 503.997 322.092C503.708 321.961 503.4 321.896 503.073 321.896C502.746 321.896 502.438 321.961 502.149 322.092C501.86 322.213 501.608 322.386 501.393 322.61C501.178 322.834 501.01 323.105 500.889 323.422C500.768 323.73 500.707 324.071 500.707 324.444V324.612C500.707 325.004 500.768 325.359 500.889 325.676C501.01 325.984 501.178 326.25 501.393 326.474C501.608 326.698 501.855 326.871 502.135 326.992C502.424 327.104 502.737 327.16 503.073 327.16ZM508.341 321.056H510.525V318.2H511.617V321.056H514.305V322.064H511.617V326.572C511.617 326.852 511.743 326.992 511.995 326.992H513.969V328H511.603C511.286 328 511.025 327.897 510.819 327.692C510.623 327.487 510.525 327.225 510.525 326.908V322.064H508.341V321.056ZM522.192 326.74H522.024C521.8 327.188 521.506 327.543 521.142 327.804C520.778 328.065 520.316 328.196 519.756 328.196C519.373 328.196 519.018 328.131 518.692 328C518.374 327.879 518.099 327.692 517.866 327.44C517.642 327.188 517.464 326.875 517.334 326.502C517.212 326.129 517.152 325.695 517.152 325.2V321.056H518.244V325.06C518.244 325.788 518.393 326.32 518.692 326.656C518.99 326.992 519.448 327.16 520.064 327.16C520.726 327.16 521.244 326.936 521.618 326.488C522 326.031 522.192 325.424 522.192 324.668V321.056H523.284V329.708C523.284 330.025 523.181 330.287 522.976 330.492C522.78 330.697 522.523 330.8 522.206 330.8H518.244V329.792H521.814C522.066 329.792 522.192 329.652 522.192 329.372V326.74ZM526.564 330.8H525.472V321.056H526.564V322.148H526.732C526.975 321.728 527.311 321.411 527.74 321.196C528.169 320.972 528.636 320.86 529.14 320.86C529.569 320.86 529.975 320.939 530.358 321.098C530.741 321.257 531.077 321.485 531.366 321.784C531.665 322.083 531.898 322.451 532.066 322.89C532.243 323.329 532.332 323.828 532.332 324.388V324.668C532.332 325.237 532.248 325.741 532.08 326.18C531.912 326.619 531.679 326.987 531.38 327.286C531.091 327.585 530.75 327.813 530.358 327.972C529.966 328.121 529.551 328.196 529.112 328.196C528.888 328.196 528.659 328.168 528.426 328.112C528.193 328.065 527.969 327.991 527.754 327.888C527.549 327.776 527.357 327.645 527.18 327.496C527.003 327.337 526.853 327.151 526.732 326.936H526.564V330.8ZM528.888 327.16C529.224 327.16 529.532 327.104 529.812 326.992C530.092 326.871 530.335 326.703 530.54 326.488C530.755 326.273 530.918 326.012 531.03 325.704C531.151 325.396 531.212 325.051 531.212 324.668V324.388C531.212 324.015 531.151 323.679 531.03 323.38C530.918 323.072 530.755 322.811 530.54 322.596C530.335 322.372 530.087 322.199 529.798 322.078C529.518 321.957 529.215 321.896 528.888 321.896C528.561 321.896 528.258 321.961 527.978 322.092C527.698 322.213 527.451 322.386 527.236 322.61C527.031 322.834 526.867 323.105 526.746 323.422C526.625 323.73 526.564 324.071 526.564 324.444V324.612C526.564 324.995 526.625 325.345 526.746 325.662C526.867 325.97 527.031 326.236 527.236 326.46C527.451 326.684 527.698 326.857 527.978 326.978C528.258 327.099 528.561 327.16 528.888 327.16ZM535.094 324.864C535.122 325.555 535.337 326.11 535.738 326.53C536.139 326.95 536.699 327.16 537.418 327.16C537.745 327.16 538.029 327.123 538.272 327.048C538.515 326.973 538.72 326.871 538.888 326.74C539.065 326.609 539.205 326.46 539.308 326.292C539.42 326.115 539.509 325.928 539.574 325.732L540.61 326.012C540.414 326.656 540.05 327.183 539.518 327.594C538.995 327.995 538.286 328.196 537.39 328.196C536.895 328.196 536.438 328.112 536.018 327.944C535.607 327.767 535.253 327.519 534.954 327.202C534.655 326.885 534.422 326.507 534.254 326.068C534.086 325.629 534.002 325.144 534.002 324.612V324.276C534.002 323.791 534.086 323.338 534.254 322.918C534.431 322.498 534.674 322.139 534.982 321.84C535.29 321.532 535.649 321.294 536.06 321.126C536.48 320.949 536.933 320.86 537.418 320.86C537.987 320.86 538.477 320.967 538.888 321.182C539.308 321.387 539.649 321.644 539.91 321.952C540.181 322.26 540.377 322.596 540.498 322.96C540.629 323.324 540.694 323.66 540.694 323.968V324.864H535.094ZM537.418 321.896C537.11 321.896 536.821 321.947 536.55 322.05C536.289 322.143 536.055 322.279 535.85 322.456C535.654 322.633 535.491 322.843 535.36 323.086C535.239 323.319 535.159 323.576 535.122 323.856H539.602C539.583 323.557 539.509 323.287 539.378 323.044C539.257 322.801 539.093 322.596 538.888 322.428C538.692 322.26 538.463 322.129 538.202 322.036C537.95 321.943 537.689 321.896 537.418 321.896Z" fill="#191A1C"/>
<path d="M238.354 185.354C238.549 185.158 238.549 184.842 238.354 184.646L235.172 181.464C234.976 181.269 234.66 181.269 234.464 181.464C234.269 181.66 234.269 181.976 234.464 182.172L237.293 185L234.464 187.828C234.269 188.024 234.269 188.34 234.464 188.536C234.66 188.731 234.976 188.731 235.172 188.536L238.354 185.354ZM140 185.5H238V184.5H140V185.5Z" fill="#191A1C"/>
<path d="M238.354 171.354C238.549 171.158 238.549 170.842 238.354 170.646L235.172 167.464C234.976 167.269 234.66 167.269 234.464 167.464C234.269 167.66 234.269 167.976 234.464 168.172L237.293 171L234.464 173.828C234.269 174.024 234.269 174.34 234.464 174.536C234.66 174.731 234.976 174.731 235.172 174.536L238.354 171.354ZM140 171.5H141.96V170.5H140V171.5ZM147.84 171.5H151.76V170.5H147.84V171.5ZM157.64 171.5H161.56V170.5H157.64V171.5ZM167.44 171.5H171.36V170.5H167.44V171.5ZM177.24 171.5H181.16V170.5H177.24V171.5ZM187.04 171.5H190.96V170.5H187.04V171.5ZM196.84 171.5H200.76V170.5H196.84V171.5ZM206.64 171.5H210.56V170.5H206.64V171.5ZM216.44 171.5H220.36V170.5H216.44V171.5ZM226.24 171.5H230.16V170.5H226.24V171.5ZM236.04 171.5H238V170.5H236.04V171.5Z" fill="#191A1C"/>
<path d="M466 185H466.5V184.5H466V185ZM465.646 218.354C465.842 218.549 466.158 218.549 466.354 218.354L469.536 215.172C469.731 214.976 469.731 214.66 469.536 214.464C469.34 214.269 469.024 214.269 468.828 214.464L466 217.293L463.172 214.464C462.976 214.269 462.66 214.269 462.464 214.464C462.269 214.66 462.269 214.976 462.464 215.172L465.646 218.354ZM316 185.5H466V184.5H316V185.5ZM465.5 185V218H466.5V185H465.5Z" fill="#191A1C"/>
<path d="M466 185H466.5V185.5H466V185ZM465.646 137.646C465.842 137.451 466.158 137.451 466.354 137.646L469.536 140.828C469.731 141.024 469.731 141.34 469.536 141.536C469.34 141.731 469.024 141.731 468.828 141.536L466 138.707L463.172 141.536C462.976 141.731 462.66 141.731 462.464 141.536C462.269 141.34 462.269 141.024 462.464 140.828L465.646 137.646ZM316 184.5H466V185.5H316V184.5ZM465.5 185V138H466.5V185H465.5Z" fill="#191A1C"/>
<path d="M451.646 137.646C451.842 137.451 452.158 137.451 452.354 137.646L455.536 140.828C455.731 141.024 455.731 141.34 455.536 141.536C455.34 141.731 455.024 141.731 454.828 141.536L452 138.707L449.172 141.536C448.976 141.731 448.66 141.731 448.464 141.536C448.269 141.34 448.269 141.024 448.464 140.828L451.646 137.646ZM452 171H452.5V171.5H452V171ZM316 170.5H317.943V171.5H316V170.5ZM323.771 170.5H327.657V171.5H323.771V170.5ZM333.486 170.5H337.371V171.5H333.486V170.5ZM343.2 170.5H347.086V171.5H343.2V170.5ZM352.914 170.5H356.8V171.5H352.914V170.5ZM362.629 170.5H366.514V171.5H362.629V170.5ZM372.343 170.5H376.229V171.5H372.343V170.5ZM382.057 170.5H385.943V171.5H382.057V170.5ZM391.771 170.5H395.657V171.5H391.771V170.5ZM401.486 170.5H405.371V171.5H401.486V170.5ZM411.2 170.5H415.086V171.5H411.2V170.5ZM420.914 170.5H424.8V171.5H420.914V170.5ZM430.629 170.5H434.514V171.5H430.629V170.5ZM440.343 170.5H444.229V171.5H440.343V170.5ZM450.057 170.5H452V171.5H450.057V170.5ZM451.5 171V168.8H452.5V171H451.5ZM451.5 162.2V157.8H452.5V162.2H451.5ZM451.5 151.2V146.8H452.5V151.2H451.5ZM451.5 140.2V138H452.5V140.2H451.5Z" fill="#191A1C"/>
<path d="M67 51V50.5H66.5V51H67ZM407.354 51.3536C407.549 51.1583 407.549 50.8417 407.354 50.6464L404.172 47.4645C403.976 47.2692 403.66 47.2692 403.464 47.4645C403.269 47.6597 403.269 47.9763 403.464 48.1716L406.293 51L403.464 53.8284C403.269 54.0237 403.269 54.3403 403.464 54.5355C403.66 54.7308 403.976 54.7308 404.172 54.5355L407.354 51.3536ZM67.5 124V121.914H66.5V124H67.5ZM67.5 115.657V111.486H66.5V115.657H67.5ZM67.5 105.229V101.057H66.5V105.229H67.5ZM67.5 94.8V90.6286H66.5V94.8H67.5ZM67.5 84.3714V80.2H66.5V84.3714H67.5ZM67.5 73.9429V69.7714H66.5V73.9429H67.5ZM67.5 63.5143V59.3428H66.5V63.5143H67.5ZM67.5 53.0857V51H66.5V53.0857H67.5ZM67 51.5H69V50.5H67V51.5ZM75 51.5H79V50.5H75V51.5ZM85 51.5H89V50.5H85V51.5ZM95 51.5H99V50.5H95V51.5ZM105 51.5H109V50.5H105V51.5ZM115 51.5H119V50.5H115V51.5ZM125 51.5H129V50.5H125V51.5ZM135 51.5H139V50.5H135V51.5ZM145 51.5H149V50.5H145V51.5ZM155 51.5H159V50.5H155V51.5ZM165 51.5H169V50.5H165V51.5ZM175 51.5H179V50.5H175V51.5ZM185 51.5H189V50.5H185V51.5ZM195 51.5H199V50.5H195V51.5ZM205 51.5H209V50.5H205V51.5ZM215 51.5H219V50.5H215V51.5ZM225 51.5H229V50.5H225V51.5ZM235 51.5H239V50.5H235V51.5ZM245 51.5H249V50.5H245V51.5ZM255 51.5H259V50.5H255V51.5ZM265 51.5H269V50.5H265V51.5ZM275 51.5H279V50.5H275V51.5ZM285 51.5H289V50.5H285V51.5ZM295 51.5H299V50.5H295V51.5ZM305 51.5H309V50.5H305V51.5ZM315 51.5H319V50.5H315V51.5ZM325 51.5H329V50.5H325V51.5ZM335 51.5H339V50.5H335V51.5ZM345 51.5H349V50.5H345V51.5ZM355 51.5H359V50.5H355V51.5ZM365 51.5H369V50.5H365V51.5ZM375 51.5H379V50.5H375V51.5ZM385 51.5H389V50.5H385V51.5ZM395 51.5H399V50.5H395V51.5ZM405 51.5H407V50.5H405V51.5Z" fill="#191A1C"/>
<path d="M178.244 36.536H179.792L180.206 34.574H180.908L180.494 36.536H182.078V37.184H180.35L179.711 40.217C179.693 40.289 179.699 40.346 179.729 40.388C179.765 40.43 179.81 40.451 179.864 40.451C179.906 40.451 179.951 40.436 179.999 40.406L181.196 39.596L181.556 40.127L180.359 40.937C180.167 41.063 179.969 41.126 179.765 41.126C179.555 41.126 179.375 41.063 179.225 40.937C179.075 40.811 179 40.622 179 40.37C179 40.328 179.003 40.286 179.009 40.244C179.015 40.196 179.024 40.148 179.036 40.1L179.648 37.184H178.244V36.536ZM183.997 38.984C183.985 39.032 183.976 39.086 183.97 39.146C183.964 39.206 183.961 39.269 183.961 39.335C183.961 39.665 184.057 39.938 184.249 40.154C184.441 40.364 184.747 40.469 185.167 40.469C185.377 40.469 185.563 40.445 185.725 40.397C185.893 40.349 186.037 40.283 186.157 40.199C186.277 40.109 186.379 40.01 186.463 39.902C186.553 39.788 186.628 39.668 186.688 39.542L187.264 39.866C187.18 40.04 187.075 40.205 186.949 40.361C186.823 40.511 186.673 40.643 186.499 40.757C186.325 40.871 186.124 40.961 185.896 41.027C185.668 41.093 185.407 41.126 185.113 41.126C184.843 41.126 184.594 41.084 184.366 41C184.144 40.922 183.952 40.808 183.79 40.658C183.628 40.502 183.502 40.313 183.412 40.091C183.322 39.869 183.277 39.617 183.277 39.335C183.277 38.957 183.337 38.594 183.457 38.246C183.577 37.892 183.751 37.58 183.979 37.31C184.207 37.04 184.489 36.824 184.825 36.662C185.161 36.494 185.542 36.41 185.968 36.41C186.268 36.41 186.529 36.458 186.751 36.554C186.973 36.644 187.156 36.77 187.3 36.932C187.444 37.088 187.552 37.268 187.624 37.472C187.696 37.67 187.732 37.877 187.732 38.093C187.732 38.255 187.714 38.411 187.678 38.561L187.579 38.984H183.997ZM185.878 37.076C185.668 37.076 185.47 37.109 185.284 37.175C185.104 37.235 184.939 37.322 184.789 37.436C184.639 37.55 184.51 37.685 184.402 37.841C184.294 37.991 184.21 38.156 184.15 38.336H187.012C187.03 38.24 187.039 38.15 187.039 38.066C187.039 37.742 186.928 37.496 186.706 37.328C186.484 37.16 186.208 37.076 185.878 37.076ZM191.524 37.04C191.404 37.04 191.278 37.055 191.146 37.085C191.02 37.115 190.903 37.16 190.795 37.22C190.693 37.28 190.609 37.358 190.543 37.454C190.477 37.544 190.444 37.652 190.444 37.778C190.444 37.97 190.528 38.114 190.696 38.21C190.87 38.306 191.167 38.369 191.587 38.399C192.019 38.429 192.352 38.537 192.586 38.723C192.826 38.909 192.946 39.182 192.946 39.542C192.946 39.794 192.892 40.019 192.784 40.217C192.682 40.415 192.538 40.583 192.352 40.721C192.166 40.853 191.944 40.952 191.686 41.018C191.434 41.09 191.155 41.126 190.849 41.126C190.543 41.126 190.282 41.084 190.066 41C189.856 40.922 189.682 40.817 189.544 40.685C189.406 40.547 189.304 40.394 189.238 40.226C189.178 40.052 189.148 39.875 189.148 39.695C189.148 39.665 189.148 39.635 189.148 39.605C189.148 39.569 189.151 39.536 189.157 39.506L189.859 39.416C189.853 39.464 189.85 39.494 189.85 39.506C189.85 39.518 189.85 39.536 189.85 39.56C189.85 39.692 189.868 39.815 189.904 39.929C189.946 40.037 190.012 40.133 190.102 40.217C190.192 40.295 190.309 40.358 190.453 40.406C190.597 40.454 190.774 40.478 190.984 40.478C191.122 40.478 191.263 40.463 191.407 40.433C191.557 40.397 191.692 40.346 191.812 40.28C191.932 40.208 192.031 40.121 192.109 40.019C192.187 39.911 192.226 39.782 192.226 39.632C192.226 39.398 192.13 39.242 191.938 39.164C191.752 39.08 191.473 39.023 191.101 38.993C190.675 38.963 190.339 38.861 190.093 38.687C189.853 38.513 189.733 38.24 189.733 37.868C189.733 37.658 189.778 37.463 189.868 37.283C189.958 37.103 190.084 36.95 190.246 36.824C190.414 36.692 190.612 36.59 190.84 36.518C191.074 36.446 191.332 36.41 191.614 36.41C191.89 36.41 192.127 36.449 192.325 36.527C192.529 36.599 192.694 36.695 192.82 36.815C192.952 36.935 193.048 37.073 193.108 37.229C193.174 37.379 193.207 37.535 193.207 37.697V37.796L192.514 37.895V37.859C192.514 37.847 192.514 37.838 192.514 37.832C192.52 37.82 192.523 37.808 192.523 37.796C192.523 37.568 192.436 37.385 192.262 37.247C192.094 37.109 191.848 37.04 191.524 37.04ZM194.776 36.536H196.324L196.738 34.574H197.44L197.026 36.536H198.61V37.184H196.882L196.243 40.217C196.225 40.289 196.231 40.346 196.261 40.388C196.297 40.43 196.342 40.451 196.396 40.451C196.438 40.451 196.483 40.436 196.531 40.406L197.728 39.596L198.088 40.127L196.891 40.937C196.699 41.063 196.501 41.126 196.297 41.126C196.087 41.126 195.907 41.063 195.757 40.937C195.607 40.811 195.532 40.622 195.532 40.37C195.532 40.328 195.535 40.286 195.541 40.244C195.547 40.196 195.556 40.148 195.568 40.1L196.18 37.184H194.776V36.536Z" fill="#191A1C"/>
<path d="M171.489 162.676H171.597L173.685 158.536L174.342 158.869L172.182 163H170.814L170.472 159.238C170.46 159.142 170.409 159.094 170.319 159.094C170.253 159.094 170.199 159.121 170.157 159.175L169.716 159.733L169.212 159.328L169.644 158.77C169.74 158.65 169.851 158.56 169.977 158.5C170.103 158.44 170.232 158.41 170.364 158.41C170.562 158.41 170.739 158.473 170.895 158.599C171.057 158.725 171.15 158.914 171.174 159.166L171.489 162.676ZM177.45 157.204C177.45 157.03 177.51 156.883 177.63 156.763C177.756 156.637 177.906 156.574 178.08 156.574C178.254 156.574 178.401 156.637 178.521 156.763C178.647 156.883 178.71 157.03 178.71 157.204C178.71 157.378 178.647 157.528 178.521 157.654C178.401 157.774 178.254 157.834 178.08 157.834C177.906 157.834 177.756 157.774 177.63 157.654C177.51 157.528 177.45 157.378 177.45 157.204ZM177.306 159.319C177.318 159.259 177.309 159.208 177.279 159.166C177.255 159.118 177.21 159.094 177.144 159.094C177.096 159.094 177.051 159.106 177.009 159.13L175.956 159.85L175.596 159.319L176.658 158.599C176.844 158.473 177.045 158.41 177.261 158.41C177.465 158.41 177.642 158.47 177.792 158.59C177.942 158.71 178.017 158.896 178.017 159.148C178.017 159.244 178.005 159.34 177.981 159.436L177.315 162.217C177.297 162.289 177.303 162.346 177.333 162.388C177.369 162.43 177.414 162.451 177.468 162.451C177.51 162.451 177.555 162.436 177.603 162.406L178.638 161.704L178.998 162.235L177.963 162.937C177.771 163.063 177.57 163.126 177.36 163.126C177.156 163.126 176.979 163.066 176.829 162.946C176.679 162.826 176.604 162.64 176.604 162.388C176.604 162.292 176.616 162.196 176.64 162.1L177.306 159.319ZM181.98 159.31C181.998 159.238 181.989 159.184 181.953 159.148C181.917 159.106 181.872 159.085 181.818 159.085C181.77 159.085 181.725 159.1 181.683 159.13L180.864 159.688L180.504 159.157L181.305 158.617C181.509 158.479 181.716 158.41 181.926 158.41C182.112 158.41 182.274 158.464 182.412 158.572C182.55 158.674 182.628 158.842 182.646 159.076H182.754C182.928 158.83 183.123 158.659 183.339 158.563C183.555 158.461 183.78 158.41 184.014 158.41C184.446 158.41 184.785 158.536 185.031 158.788C185.277 159.034 185.4 159.361 185.4 159.769C185.4 159.925 185.382 160.084 185.346 160.246L184.581 160.3C184.611 160.15 184.626 160.024 184.626 159.922C184.626 159.634 184.545 159.421 184.383 159.283C184.227 159.145 184.023 159.076 183.771 159.076C183.591 159.076 183.426 159.112 183.276 159.184C183.132 159.25 183.006 159.343 182.898 159.463C182.79 159.577 182.697 159.712 182.619 159.868C182.547 160.024 182.493 160.186 182.457 160.354L182.034 162.352H183.096V163H180.234V162.352H181.332L181.98 159.31ZM186.51 158.536H188.058L188.472 156.574H189.174L188.76 158.536H190.344V159.184H188.616L187.977 162.217C187.959 162.289 187.965 162.346 187.995 162.388C188.031 162.43 188.076 162.451 188.13 162.451C188.172 162.451 188.217 162.436 188.265 162.406L189.462 161.596L189.822 162.127L188.625 162.937C188.433 163.063 188.235 163.126 188.031 163.126C187.821 163.126 187.641 163.063 187.491 162.937C187.341 162.811 187.266 162.622 187.266 162.37C187.266 162.328 187.269 162.286 187.275 162.244C187.281 162.196 187.29 162.148 187.302 162.1L187.914 159.184H186.51V158.536ZM194.54 162.244H194.432C194.27 162.532 194.063 162.751 193.811 162.901C193.559 163.051 193.253 163.126 192.893 163.126C192.497 163.126 192.176 163.015 191.93 162.793C191.684 162.565 191.561 162.229 191.561 161.785C191.561 161.695 191.564 161.605 191.57 161.515C191.582 161.419 191.603 161.314 191.633 161.2L192.227 158.536H192.929L192.353 161.11C192.311 161.296 192.29 161.47 192.29 161.632C192.29 162.184 192.587 162.46 193.181 162.46C193.595 162.46 193.946 162.316 194.234 162.028C194.528 161.734 194.729 161.344 194.837 160.858L195.359 158.536H196.061L195.242 162.244C195.23 162.292 195.236 162.331 195.26 162.361C195.284 162.391 195.317 162.406 195.359 162.406C195.401 162.406 195.443 162.391 195.485 162.361L195.872 162.082L196.25 162.604L195.8 162.946C195.728 163.006 195.638 163.051 195.53 163.081C195.428 163.111 195.323 163.126 195.215 163.126C195.125 163.126 195.038 163.114 194.954 163.09C194.87 163.066 194.795 163.027 194.729 162.973C194.663 162.919 194.609 162.853 194.567 162.775C194.531 162.691 194.513 162.592 194.513 162.478C194.513 162.448 194.513 162.418 194.513 162.388C194.519 162.358 194.525 162.328 194.531 162.298L194.54 162.244ZM199.889 162.298C199.703 162.616 199.481 162.835 199.223 162.955C198.971 163.069 198.704 163.126 198.422 163.126C198.182 163.126 197.966 163.084 197.774 163C197.582 162.91 197.42 162.787 197.288 162.631C197.156 162.475 197.054 162.289 196.982 162.073C196.91 161.851 196.874 161.608 196.874 161.344C196.874 160.966 196.928 160.6 197.036 160.246C197.144 159.892 197.3 159.58 197.504 159.31C197.714 159.04 197.972 158.824 198.278 158.662C198.584 158.494 198.938 158.41 199.34 158.41C199.646 158.41 199.907 158.482 200.123 158.626C200.339 158.764 200.48 158.968 200.546 159.238H200.654L200.798 158.536H201.5L200.708 162.244C200.696 162.298 200.702 162.34 200.726 162.37C200.75 162.394 200.783 162.406 200.825 162.406C200.867 162.406 200.909 162.391 200.951 162.361L201.275 162.127L201.653 162.658L201.248 162.964C201.182 163.012 201.098 163.051 200.996 163.081C200.9 163.111 200.801 163.126 200.699 163.126C200.609 163.126 200.522 163.114 200.438 163.09C200.354 163.066 200.276 163.03 200.204 162.982C200.138 162.928 200.084 162.862 200.042 162.784C200 162.7 199.979 162.598 199.979 162.478C199.979 162.448 199.979 162.418 199.979 162.388C199.985 162.358 199.991 162.328 199.997 162.298H199.889ZM198.638 162.46C198.878 162.46 199.103 162.406 199.313 162.298C199.529 162.184 199.715 162.031 199.871 161.839C200.033 161.647 200.159 161.422 200.249 161.164C200.339 160.9 200.384 160.615 200.384 160.309C200.384 159.937 200.3 159.64 200.132 159.418C199.964 159.19 199.703 159.076 199.349 159.076C199.067 159.076 198.818 159.136 198.602 159.256C198.392 159.376 198.212 159.538 198.062 159.742C197.912 159.94 197.798 160.171 197.72 160.435C197.648 160.699 197.612 160.972 197.612 161.254C197.612 161.65 197.699 161.95 197.873 162.154C198.047 162.358 198.302 162.46 198.638 162.46ZM205.013 157.474C205.031 157.402 205.022 157.348 204.986 157.312C204.956 157.27 204.911 157.249 204.851 157.249C204.809 157.249 204.764 157.264 204.716 157.294L203.663 158.014L203.303 157.483L204.365 156.763C204.461 156.697 204.56 156.649 204.662 156.619C204.764 156.589 204.866 156.574 204.968 156.574C205.166 156.574 205.34 156.634 205.49 156.754C205.646 156.874 205.724 157.06 205.724 157.312C205.724 157.414 205.712 157.51 205.688 157.6L204.599 162.217C204.581 162.289 204.587 162.346 204.617 162.388C204.653 162.43 204.698 162.451 204.752 162.451C204.794 162.451 204.839 162.436 204.887 162.406L205.922 161.704L206.282 162.235L205.247 162.937C205.055 163.063 204.854 163.126 204.644 163.126C204.446 163.126 204.269 163.066 204.113 162.946C203.963 162.826 203.888 162.64 203.888 162.388C203.888 162.286 203.9 162.19 203.924 162.1L205.013 157.474Z" fill="#191A1C"/>
<path d="M167.15 200.8H166.457L167.636 195.211C167.648 195.145 167.642 195.1 167.618 195.076C167.594 195.046 167.558 195.031 167.51 195.031C167.48 195.031 167.453 195.04 167.429 195.058L166.934 195.4L166.574 194.869L166.997 194.581C167.165 194.467 167.348 194.41 167.546 194.41C167.786 194.41 167.975 194.476 168.113 194.608C168.257 194.74 168.329 194.932 168.329 195.184V195.238H168.437C168.617 194.968 168.833 194.764 169.085 194.626C169.343 194.482 169.649 194.41 170.003 194.41C170.249 194.41 170.474 194.455 170.678 194.545C170.888 194.629 171.065 194.749 171.209 194.905C171.359 195.055 171.476 195.238 171.56 195.454C171.644 195.664 171.686 195.892 171.686 196.138C171.686 196.534 171.632 196.912 171.524 197.272C171.422 197.632 171.266 197.95 171.056 198.226C170.846 198.502 170.585 198.721 170.273 198.883C169.961 199.045 169.595 199.126 169.175 199.126C168.839 199.126 168.548 199.051 168.302 198.901C168.062 198.745 167.891 198.55 167.789 198.316H167.681L167.15 200.8ZM169.085 198.46C169.379 198.46 169.64 198.4 169.868 198.28C170.102 198.16 170.297 198.001 170.453 197.803C170.615 197.599 170.735 197.365 170.813 197.101C170.897 196.837 170.939 196.564 170.939 196.282C170.939 195.886 170.834 195.586 170.624 195.382C170.42 195.178 170.147 195.076 169.805 195.076C169.529 195.076 169.277 195.139 169.049 195.265C168.827 195.391 168.635 195.556 168.473 195.76C168.311 195.964 168.185 196.195 168.095 196.453C168.005 196.711 167.96 196.975 167.96 197.245C167.96 197.629 168.059 197.929 168.257 198.145C168.455 198.355 168.731 198.46 169.085 198.46ZM175.82 196.354C175.838 196.27 175.85 196.198 175.856 196.138C175.868 196.072 175.874 196.006 175.874 195.94C175.874 195.628 175.781 195.406 175.595 195.274C175.415 195.142 175.19 195.076 174.92 195.076C174.512 195.076 174.173 195.223 173.903 195.517C173.639 195.805 173.456 196.192 173.354 196.678L172.859 199H172.166L173.534 192.574H174.209L173.669 195.202H173.777C173.927 194.92 174.122 194.719 174.362 194.599C174.602 194.473 174.872 194.41 175.172 194.41C175.568 194.41 175.895 194.536 176.153 194.788C176.417 195.034 176.549 195.382 176.549 195.832C176.549 196.024 176.528 196.216 176.486 196.408L176.09 198.289C176.072 198.379 176.111 198.424 176.207 198.424C176.243 198.424 176.279 198.409 176.315 198.379L176.666 198.127L177.044 198.658L176.63 198.955C176.468 199.069 176.285 199.126 176.081 199.126C175.895 199.126 175.73 199.072 175.586 198.964C175.448 198.856 175.379 198.688 175.379 198.46C175.379 198.394 175.388 198.316 175.406 198.226L175.82 196.354ZM179.189 197.11C179.147 197.296 179.126 197.47 179.126 197.632C179.126 198.184 179.423 198.46 180.017 198.46C180.431 198.46 180.785 198.316 181.079 198.028C181.373 197.734 181.571 197.344 181.673 196.858L182.159 194.536H182.861L181.682 200.098C181.64 200.302 181.541 200.47 181.385 200.602C181.229 200.734 181.049 200.8 180.845 200.8H178.406V200.152H180.728C180.89 200.152 180.989 200.062 181.025 199.882L181.367 198.298H181.259C181.079 198.568 180.863 198.775 180.611 198.919C180.365 199.057 180.071 199.126 179.729 199.126C179.327 199.126 179.006 199.006 178.766 198.766C178.526 198.526 178.406 198.187 178.406 197.749C178.406 197.569 178.427 197.386 178.469 197.2L178.874 195.274C178.886 195.214 178.877 195.169 178.847 195.139C178.823 195.103 178.79 195.085 178.748 195.085C178.712 195.085 178.673 195.1 178.631 195.13L178.172 195.445L177.812 194.914L178.28 194.599C178.466 194.473 178.655 194.41 178.847 194.41C179.045 194.41 179.216 194.476 179.36 194.608C179.504 194.74 179.576 194.923 179.576 195.157C179.576 195.193 179.573 195.229 179.567 195.265C179.567 195.295 179.561 195.337 179.549 195.391L179.189 197.11ZM186.013 195.04C185.893 195.04 185.767 195.055 185.635 195.085C185.509 195.115 185.392 195.16 185.284 195.22C185.182 195.28 185.098 195.358 185.032 195.454C184.966 195.544 184.933 195.652 184.933 195.778C184.933 195.97 185.017 196.114 185.185 196.21C185.359 196.306 185.656 196.369 186.076 196.399C186.508 196.429 186.841 196.537 187.075 196.723C187.315 196.909 187.435 197.182 187.435 197.542C187.435 197.794 187.381 198.019 187.273 198.217C187.171 198.415 187.027 198.583 186.841 198.721C186.655 198.853 186.433 198.952 186.175 199.018C185.923 199.09 185.644 199.126 185.338 199.126C185.032 199.126 184.771 199.084 184.555 199C184.345 198.922 184.171 198.817 184.033 198.685C183.895 198.547 183.793 198.394 183.727 198.226C183.667 198.052 183.637 197.875 183.637 197.695C183.637 197.665 183.637 197.635 183.637 197.605C183.637 197.569 183.64 197.536 183.646 197.506L184.348 197.416C184.342 197.464 184.339 197.494 184.339 197.506C184.339 197.518 184.339 197.536 184.339 197.56C184.339 197.692 184.357 197.815 184.393 197.929C184.435 198.037 184.501 198.133 184.591 198.217C184.681 198.295 184.798 198.358 184.942 198.406C185.086 198.454 185.263 198.478 185.473 198.478C185.611 198.478 185.752 198.463 185.896 198.433C186.046 198.397 186.181 198.346 186.301 198.28C186.421 198.208 186.52 198.121 186.598 198.019C186.676 197.911 186.715 197.782 186.715 197.632C186.715 197.398 186.619 197.242 186.427 197.164C186.241 197.08 185.962 197.023 185.59 196.993C185.164 196.963 184.828 196.861 184.582 196.687C184.342 196.513 184.222 196.24 184.222 195.868C184.222 195.658 184.267 195.463 184.357 195.283C184.447 195.103 184.573 194.95 184.735 194.824C184.903 194.692 185.101 194.59 185.329 194.518C185.563 194.446 185.821 194.41 186.103 194.41C186.379 194.41 186.616 194.449 186.814 194.527C187.018 194.599 187.183 194.695 187.309 194.815C187.441 194.935 187.537 195.073 187.597 195.229C187.663 195.379 187.696 195.535 187.696 195.697V195.796L187.003 195.895V195.859C187.003 195.847 187.003 195.838 187.003 195.832C187.009 195.82 187.012 195.808 187.012 195.796C187.012 195.568 186.925 195.385 186.751 195.247C186.583 195.109 186.337 195.04 186.013 195.04ZM191.227 193.204C191.227 193.03 191.287 192.883 191.407 192.763C191.533 192.637 191.683 192.574 191.857 192.574C192.031 192.574 192.178 192.637 192.298 192.763C192.424 192.883 192.487 193.03 192.487 193.204C192.487 193.378 192.424 193.528 192.298 193.654C192.178 193.774 192.031 193.834 191.857 193.834C191.683 193.834 191.533 193.774 191.407 193.654C191.287 193.528 191.227 193.378 191.227 193.204ZM191.083 195.319C191.095 195.259 191.086 195.208 191.056 195.166C191.032 195.118 190.987 195.094 190.921 195.094C190.873 195.094 190.828 195.106 190.786 195.13L189.733 195.85L189.373 195.319L190.435 194.599C190.621 194.473 190.822 194.41 191.038 194.41C191.242 194.41 191.419 194.47 191.569 194.59C191.719 194.71 191.794 194.896 191.794 195.148C191.794 195.244 191.782 195.34 191.758 195.436L191.092 198.217C191.074 198.289 191.08 198.346 191.11 198.388C191.146 198.43 191.191 198.451 191.245 198.451C191.287 198.451 191.332 198.436 191.38 198.406L192.415 197.704L192.775 198.235L191.74 198.937C191.548 199.063 191.347 199.126 191.137 199.126C190.933 199.126 190.756 199.066 190.606 198.946C190.456 198.826 190.381 198.64 190.381 198.388C190.381 198.292 190.393 198.196 190.417 198.1L191.083 195.319ZM198.601 197.47C198.523 197.698 198.415 197.914 198.277 198.118C198.139 198.316 197.965 198.49 197.755 198.64C197.551 198.79 197.311 198.91 197.035 199C196.765 199.084 196.459 199.126 196.117 199.126C195.835 199.126 195.577 199.084 195.343 199C195.115 198.91 194.92 198.784 194.758 198.622C194.596 198.46 194.47 198.265 194.38 198.037C194.29 197.809 194.245 197.554 194.245 197.272C194.245 196.882 194.311 196.513 194.443 196.165C194.581 195.817 194.773 195.514 195.019 195.256C195.265 194.992 195.562 194.785 195.91 194.635C196.258 194.485 196.645 194.41 197.071 194.41C197.347 194.41 197.596 194.449 197.818 194.527C198.04 194.605 198.229 194.716 198.385 194.86C198.541 194.998 198.661 195.166 198.745 195.364C198.829 195.556 198.871 195.769 198.871 196.003C198.871 196.015 198.871 196.03 198.871 196.048C198.871 196.06 198.868 196.09 198.862 196.138L198.142 196.246C198.148 196.21 198.151 196.183 198.151 196.165C198.151 196.147 198.151 196.126 198.151 196.102C198.151 195.958 198.127 195.826 198.079 195.706C198.037 195.58 197.965 195.472 197.863 195.382C197.767 195.286 197.641 195.211 197.485 195.157C197.335 195.103 197.155 195.076 196.945 195.076C196.663 195.076 196.402 195.133 196.162 195.247C195.928 195.361 195.721 195.517 195.541 195.715C195.367 195.907 195.229 196.132 195.127 196.39C195.031 196.648 194.983 196.918 194.983 197.2C194.983 197.626 195.097 197.944 195.325 198.154C195.553 198.358 195.865 198.46 196.261 198.46C196.501 198.46 196.714 198.427 196.9 198.361C197.086 198.289 197.248 198.199 197.386 198.091C197.524 197.977 197.638 197.848 197.728 197.704C197.818 197.56 197.887 197.41 197.935 197.254L198.601 197.47ZM202.644 198.298C202.458 198.616 202.236 198.835 201.978 198.955C201.726 199.069 201.459 199.126 201.177 199.126C200.937 199.126 200.721 199.084 200.529 199C200.337 198.91 200.175 198.787 200.043 198.631C199.911 198.475 199.809 198.289 199.737 198.073C199.665 197.851 199.629 197.608 199.629 197.344C199.629 196.966 199.683 196.6 199.791 196.246C199.899 195.892 200.055 195.58 200.259 195.31C200.469 195.04 200.727 194.824 201.033 194.662C201.339 194.494 201.693 194.41 202.095 194.41C202.401 194.41 202.662 194.482 202.878 194.626C203.094 194.764 203.235 194.968 203.301 195.238H203.409L203.553 194.536H204.255L203.463 198.244C203.451 198.298 203.457 198.34 203.481 198.37C203.505 198.394 203.538 198.406 203.58 198.406C203.622 198.406 203.664 198.391 203.706 198.361L204.03 198.127L204.408 198.658L204.003 198.964C203.937 199.012 203.853 199.051 203.751 199.081C203.655 199.111 203.556 199.126 203.454 199.126C203.364 199.126 203.277 199.114 203.193 199.09C203.109 199.066 203.031 199.03 202.959 198.982C202.893 198.928 202.839 198.862 202.797 198.784C202.755 198.7 202.734 198.598 202.734 198.478C202.734 198.448 202.734 198.418 202.734 198.388C202.74 198.358 202.746 198.328 202.752 198.298H202.644ZM201.393 198.46C201.633 198.46 201.858 198.406 202.068 198.298C202.284 198.184 202.47 198.031 202.626 197.839C202.788 197.647 202.914 197.422 203.004 197.164C203.094 196.9 203.139 196.615 203.139 196.309C203.139 195.937 203.055 195.64 202.887 195.418C202.719 195.19 202.458 195.076 202.104 195.076C201.822 195.076 201.573 195.136 201.357 195.256C201.147 195.376 200.967 195.538 200.817 195.742C200.667 195.94 200.553 196.171 200.475 196.435C200.403 196.699 200.367 196.972 200.367 197.254C200.367 197.65 200.454 197.95 200.628 198.154C200.802 198.358 201.057 198.46 201.393 198.46ZM207.768 193.474C207.786 193.402 207.777 193.348 207.741 193.312C207.711 193.27 207.666 193.249 207.606 193.249C207.564 193.249 207.519 193.264 207.471 193.294L206.418 194.014L206.058 193.483L207.12 192.763C207.216 192.697 207.315 192.649 207.417 192.619C207.519 192.589 207.621 192.574 207.723 192.574C207.921 192.574 208.095 192.634 208.245 192.754C208.401 192.874 208.479 193.06 208.479 193.312C208.479 193.414 208.467 193.51 208.443 193.6L207.354 198.217C207.336 198.289 207.342 198.346 207.372 198.388C207.408 198.43 207.453 198.451 207.507 198.451C207.549 198.451 207.594 198.436 207.642 198.406L208.677 197.704L209.037 198.235L208.002 198.937C207.81 199.063 207.609 199.126 207.399 199.126C207.201 199.126 207.024 199.066 206.868 198.946C206.718 198.826 206.643 198.64 206.643 198.388C206.643 198.286 206.655 198.19 206.679 198.1L207.768 193.474Z" fill="#191A1C"/>
</svg>
